<?xml version="1.0" encoding="utf-8"?>
<!-- Generator: Adobe Illustrator 21.1.0, SVG Export Plug-In . SVG Version: 6.00 Build 0)  -->
<svg version="1.1" xmlns="http://www.w3.org/2000/svg" xmlns:xlink="http://www.w3.org/1999/xlink" x="0px" y="0px" width="1400px"
	 height="980px" viewBox="0 0 1400 980" enable-background="new 0 0 1400 980" xml:space="preserve">
<g id="background">
	<rect id="color" fill="#F4C20D" width="1400" height="980"/>
</g>
<g id="browser_design">
	<g id="browser_window">
		<rect x="89.1" y="184.9" fill="#F0F1F4" width="1221.8" height="735.7"/>
		<rect x="89.1" y="210.5" fill="#FFFFFF" width="1221.8" height="677.8"/>
		<g>
			<path fill="#D1D4D9" d="M1310.9,124.3c0,3.6-2.9,6.5-6.5,6.5H95.6c-3.6,0-6.5-2.9-6.5-6.5V65.9c0-3.6,2.9-6.5,6.5-6.5h1208.8
				c3.6,0,6.5,2.9,6.5,6.5V124.3z"/>
			<g>
				<path fill="#656D78" d="M1291,83.5c-0.4,0-0.8-0.2-1.1-0.5c-0.3-0.3-0.5-0.7-0.5-1.2c0-0.4,0.2-0.8,0.5-1.1l2.6-2.6l-2.8-2.8h8
					v8l-2.8-2.8l-2.6,2.6C1291.8,83.3,1291.4,83.5,1291,83.5z"/>
				<path fill="#656D78" d="M1280,92.8v-8l3,3l2.7-2.7c0.3-0.3,0.7-0.5,1.1-0.5c0.4,0,0.8,0.2,1.1,0.5c0.3,0.3,0.5,0.7,0.5,1.1
					c0,0.4-0.2,0.8-0.5,1.1l-2.7,2.7l2.7,2.7H1280z"/>
			</g>
			<g>
				<circle fill="#DC4B3E" cx="116.4" cy="85.4" r="7.8"/>
				<circle fill="#F4C20D" cx="143.7" cy="85.4" r="7.8"/>
				<circle fill="#3CBA54" cx="171" cy="85.4" r="7.8"/>
			</g>
			<path fill="#E0E3E8" d="M473.2,110.1c-7.8,0-10.4-32.5-20.8-32.5c-7.8,0-234,0-241.8,0c-10.4,0-13,32.5-20.8,32.5H89.1v74.6v0.2
				h1221.8v-0.2v-74.6H473.2z"/>
			<path fill="#FFFFFF" d="M1222.8,172.8H227c-1.8,0-3.2-1.4-3.2-3.2v-41.9c0-1.7,1.4-3.2,3.2-3.2h995.9c1.8,0,3.2,1.4,3.2,3.2v41.9
				C1226,171.4,1224.6,172.8,1222.8,172.8z"/>
			<g>
				<g>
					<path fill="#AAB2BC" d="M130.9,146.9h-10.6l4.3-3.9c0.6-0.6,0.6-1.6,0-2.1c-0.6-0.6-1.6-0.6-2.1,0l-7.4,6.8
						c-0.6,0.6-0.6,1.6,0,2.1l7.4,7.1c0.3,0.3,0.7,0.4,1.1,0.4c0.4,0,0.8-0.1,1.1-0.4c0.6-0.6,0.6-1.6,0-2.1l-4.1-3.9h10.4
						c1.1,0,1.9-0.9,1.9-1.9C132.8,147.8,132,146.9,130.9,146.9z"/>
					<path fill="#AAB2BC" d="M164.9,148l-7.4-7.1c-0.3-0.3-0.7-0.4-1.1-0.4c-0.4,0-0.8,0.1-1.1,0.4c-0.6,0.6-0.6,1.6,0,2.1l4.1,3.9
						h-10.4c-1.1,0-1.9,0.9-1.9,1.9c0,1.1,0.9,1.9,1.9,1.9h10.6l-4.3,3.9c-0.6,0.6-0.6,1.6,0,2.1c0.6,0.6,1.6,0.6,2.1,0l7.4-6.8
						C165.5,149.5,165.5,148.6,164.9,148z"/>
					<path fill="#AAB2BC" d="M199.1,148.1v-7.7l-2.6,2.6c-1.4-1.2-3.2-1.9-5.1-1.9c-4.4,0-8,3.6-8,8c0,4.4,3.6,8,8,8
						c2.6,0,4.9-1.2,6.4-3.1c0.5-0.6,0.4-1.5-0.3-2c-0.3-0.2-0.6-0.3-0.9-0.3c-0.4,0-0.9,0.2-1.1,0.6c-1,1.2-2.4,2-4.1,2
						c-1.4,0-2.7-0.6-3.7-1.5c-0.9-0.9-1.5-2.2-1.5-3.7c0-1.4,0.6-2.7,1.5-3.7c0.9-0.9,2.2-1.5,3.7-1.5c1.2,0,2.2,0.4,3.1,1l-3,3
						H199.1z"/>
				</g>
				<g>
					<path fill="#AAB2BC" d="M1282.4,142h-26.5c-1.6,0-3-1.3-3-3c0-1.6,1.3-2.9,3-2.9h26.5c1.6,0,2.9,1.3,2.9,2.9
						C1285.3,140.7,1284,142,1282.4,142z"/>
					<path fill="#AAB2BC" d="M1282.4,151.8h-26.5c-1.6,0-3-1.3-3-3c0-1.6,1.3-2.9,3-2.9h26.5c1.6,0,2.9,1.3,2.9,2.9
						C1285.3,150.5,1284,151.8,1282.4,151.8z"/>
					<path fill="#AAB2BC" d="M1282.4,161.7h-26.5c-1.6,0-3-1.3-3-2.9c0-1.6,1.3-2.9,3-2.9h26.5c1.6,0,2.9,1.3,2.9,2.9
						C1285.3,160.3,1284,161.7,1282.4,161.7z"/>
				</g>
				<path fill="#F4C20D" d="M1210.3,146.3c-0.3-0.8-1-1.3-1.8-1.3h-5.2l-1.6-4.9c-0.3-0.8-1-1.3-1.8-1.3c-0.8,0-1.6,0.5-1.8,1.3
					l-1.6,4.9h-5.2c-0.8,0-1.6,0.5-1.8,1.3c-0.3,0.8,0,1.7,0.7,2.2l4.2,3l-1.6,4.9c-0.3,0.8,0,1.7,0.7,2.2c0.3,0.2,0.7,0.4,1.1,0.4
					c0.4,0,0.8-0.1,1.1-0.4l4.2-3l4.2,3c0.3,0.2,0.7,0.4,1.1,0.4c0.4,0,0.8-0.1,1.1-0.4c0.7-0.5,1-1.4,0.7-2.2l-1.6-4.9l4.2-3
					C1210.3,148,1210.6,147.1,1210.3,146.3z"/>
				<path fill="#CCD1D9" d="M251.1,136.1c-7,0-12.7,5.7-12.7,12.8c0,7.1,5.7,12.8,12.7,12.8c7,0,12.7-5.7,12.7-12.8
					C263.8,141.8,258.1,136.1,251.1,136.1z M250,159.9L250,159.9c-5.6-0.6-9.9-5.3-9.9-11.1c0-3.8,1.9-7.1,4.7-9.1l-0.9,1.2l0.3,1.6
					l-0.5,0.8v0.8l-0.3,1.7l0.1,1l0.6,0.7l0.8,1.5l0.7,1.3h1l1.5,1.5l0.8,0.5l0.6,0.7v0.7l-0.5,0.8v1l0.5,1l1.4,0.7l0.3,1.5
					l-0.5,1.1c-0.2,0-0.4,0-0.6,0L250,159.9z M254.3,159.4l0.1-0.2l1.3-0.8l1-1.7l0.7-1.2l0.1-0.8l-1.3-0.7l-1.9-1.2l-0.4-0.7
					l-1.6-0.3h-1.7l-1.2-0.1l-1-0.9l-0.8-0.6l-0.9-1.2l-0.5-0.1V148v-0.9h0.6h1.2l0.7,0.1v0.8l0.9,0.1l-0.4-1.4v-0.6l0.7-0.4
					l0.5-0.3l0.9-0.7l0.9-1.4l0.5-0.5l-1-0.8l-1-0.5l-0.5,0.5l-0.5,0l-0.7,0.7v0.6l-0.9-0.5l1-1.3l-0.9-0.7l0.7-0.4l0.8-0.6l0.6-0.6
					l-0.9-0.1h-0.8l-0.8,0.5l-0.8-0.6l-0.6-0.5l-0.1,0c1.2-0.6,2.5-1,4-1.1l-0.5,0.1l1,0.9l1.2,0.6l0.6,1l1-0.1l0.5-0.9l-0.5-0.9
					l-0.9-0.6c1.9,0.2,3.6,1,5.1,2l0.6,1.9l0.7,0.8l-1.5,2.4c0,0,0.5,0.6,1.1,0.7c0,0,0,0,0,0c0.2,0,0.3-0.2,0.4-0.3
					c0.1-0.2,0.2-0.3,0.4-0.3c0,0,0,0,0.1,0c0.6,0.1,1.4,0.7,1.5,0.8c0.1,0.3-2.6,2.6-2.6,2.6l0.9,1.7l1.4,1.4l0.8-0.8l0.4,0.6
					C260.8,155.2,258,158.3,254.3,159.4z"/>
			</g>
		</g>
	</g>
	<g id="button">
		<g id="button_3_">
			<rect x="642.7" y="488.4" fill="#4885ED" width="114.5" height="48.4"/>
		</g>
		<g>
			<text transform="matrix(1.0093 0 0 1 673.2837 522.8535)" fill="#FFFFFF" font-family="'Arial-BoldMT'" font-size="33.0909px">GO</text>
		</g>
	</g>
	<g id="search_field_1_">
		<g>
			<path fill="#CECECD" d="M1052.6,452.2H344.5v-47.5h708.1V452.2z M345.5,451.2h706.1v-45.5H345.5V451.2z"/>
		</g>
	</g>
	<text transform="matrix(1 0 0 1 272.5977 155.7686)"><tspan x="0" y="0" fill="#333333" font-family="'ArialMT'" font-size="20.3636px">http://ww</tspan><tspan x="80.4" y="0" fill="#333333" font-family="'ArialMT'" font-size="20.3636px" letter-spacing="-1">w</tspan><tspan x="93.9" y="0" fill="#333333" font-family="'ArialMT'" font-size="20.3636px">.address-ba</tspan><tspan x="201.5" y="0" fill="#333333" font-family="'ArialMT'" font-size="20.3636px" letter-spacing="-1">r</tspan><tspan x="207.1" y="0" fill="#333333" font-family="'ArialMT'" font-size="20.3636px">.com</tspan></text>
	<text transform="matrix(1 0 0 1 532.252 368.5801)"><tspan x="0" y="0" fill="#4885ED" font-family="'ArialMT'" font-size="96.7273px" letter-spacing="4">S</tspan><tspan x="69.4" y="0" fill="#DC4B3E" font-family="'ArialMT'" font-size="96.7273px" letter-spacing="4">e</tspan><tspan x="128" y="0" fill="#F4C20D" font-family="'ArialMT'" font-size="96.7273px" letter-spacing="4">a</tspan><tspan x="186.6" y="0" fill="#3CBA54" font-family="'ArialMT'" font-size="96.7273px" letter-spacing="4">r</tspan><tspan x="223.7" y="0" fill="#4885ED" font-family="'ArialMT'" font-size="96.7273px" letter-spacing="4">c</tspan><tspan x="276.9" y="0" fill="#DC4B3E" font-family="'ArialMT'" font-size="96.7273px" letter-spacing="4">h</tspan></text>
</g>
</svg>
