<?xml version="1.0" encoding="UTF-8" standalone="no"?>
<!-- Created with Inkscape (http://www.inkscape.org/) -->

<svg
   xmlns:dc="http://purl.org/dc/elements/1.1/"
   xmlns:cc="http://creativecommons.org/ns#"
   xmlns:rdf="http://www.w3.org/1999/02/22-rdf-syntax-ns#"
   xmlns:svg="http://www.w3.org/2000/svg"
   xmlns="http://www.w3.org/2000/svg"
   xmlns:sodipodi="http://sodipodi.sourceforge.net/DTD/sodipodi-0.dtd"
   xmlns:inkscape="http://www.inkscape.org/namespaces/inkscape"
   width="154.61438mm"
   height="151.55429mm"
   viewBox="0 0 547.84623 537.0034"
   id="svg7682"
   version="1.1"
   inkscape:version="0.91 r13725"
   sodipodi:docname="bGridMultipleRows.svg"
   inkscape:export-filename="/home/raul/Escritorio/websites/rauljesus.xyz/web/docs/bootstrap/imgBootstrap/bGridMultipleRows.png"
   inkscape:export-xdpi="90"
   inkscape:export-ydpi="90">
  <defs
     id="defs7684">
    <clipPath
       clipPathUnits="userSpaceOnUse"
       id="clipPath18">
      <path
         d="M 0,980 1400,980 1400,0 0,0 0,980 Z"
         id="path20"
         inkscape:connector-curvature="0" />
    </clipPath>
    <clipPath
       clipPathUnits="userSpaceOnUse"
       id="clipPath52">
      <path
         d="M 0,980 1400,980 1400,0 0,0 0,980 Z"
         id="path54"
         inkscape:connector-curvature="0" />
    </clipPath>
    <clipPath
       clipPathUnits="userSpaceOnUse"
       id="clipPath18-3">
      <path
         d="M 0,980 1400,980 1400,0 0,0 0,980 Z"
         id="path20-6"
         inkscape:connector-curvature="0" />
    </clipPath>
  </defs>
  <sodipodi:namedview
     id="base"
     pagecolor="#ffffff"
     bordercolor="#666666"
     borderopacity="1.0"
     inkscape:pageopacity="0.0"
     inkscape:pageshadow="2"
     inkscape:zoom="0.75923439"
     inkscape:cx="-350.84362"
     inkscape:cy="303.92084"
     inkscape:document-units="px"
     inkscape:current-layer="layer1"
     showgrid="false"
     inkscape:window-width="1366"
     inkscape:window-height="704"
     inkscape:window-x="0"
     inkscape:window-y="27"
     inkscape:window-maximized="1"
     fit-margin-top="5"
     fit-margin-right="5"
     fit-margin-bottom="5"
     fit-margin-left="5" />
  <metadata
     id="metadata7687">
    <rdf:RDF>
      <cc:Work
         rdf:about="">
        <dc:format>image/svg+xml</dc:format>
        <dc:type
           rdf:resource="http://purl.org/dc/dcmitype/StillImage" />
        <dc:title></dc:title>
      </cc:Work>
    </rdf:RDF>
  </metadata>
  <g
     inkscape:label="Capa 1"
     inkscape:groupmode="layer"
     id="layer1"
     transform="translate(-197.46317,-310.54555)">
    <g
       transform="matrix(1.0177298,0,0,-1.5358879,721.25726,329.03003)"
       id="g8652"
       style="stroke:#000000;stroke-opacity:0.23152711">
      <path
         inkscape:connector-curvature="0"
         id="path8654"
         style="fill:#e7e8e9;fill-opacity:1;fill-rule:nonzero;stroke:#000000;stroke-opacity:0.23152711"
         d="m 0,0 -491.036,0 c -3.086,0 -5.61,-2.524 -5.61,-5.61 l 0,-314.348 c 0,-3.085 2.524,-5.609 5.61,-5.609 l 491.036,0 c 3.087,0 5.611,2.524 5.611,5.609 l 0,314.348 C 5.611,-2.524 3.087,0 0,0" />
    </g>
    <g
       transform="matrix(1.0181918,0,0,-1.0181918,215.68931,370.79906)"
       id="g8656"
       style="stroke:#000000;stroke-opacity:0.23152711">
      <path
         inkscape:connector-curvature="0"
         id="path8658"
         style="fill:#dcddde;fill-opacity:1;fill-rule:nonzero;stroke:#000000;stroke-opacity:0.23152711"
         d="m 0,0 0,33.086 c 0,1.284 1.051,2.336 2.337,2.336 l 66.504,0 c 1.286,0 2.336,-1.052 2.336,-2.336 l 0,-8.61 431.08,0 L 502.257,0 0,0 Z" />
    </g>
    <path
       inkscape:connector-curvature="0"
       id="path8660"
       style="fill:#ffffff;fill-opacity:1;fill-rule:nonzero;stroke:#000000;stroke-width:1.29118407;stroke-opacity:0.23152711"
       d="m 726.94728,816.73011 -511.12198,0 0,-448.55783 511.12198,0 0,448.55783 z" />
    <g
       transform="matrix(1.0181918,0,0,-1.0181918,721.72924,820.91272)"
       id="g8662"
       style="stroke:#000000;stroke-opacity:0.23152711">
      <path
         inkscape:connector-curvature="0"
         id="path8664"
         style="fill:#d1d3d4;fill-opacity:1;fill-rule:nonzero;stroke:#000000;stroke-opacity:0.23152711"
         d="M 0,0 -4.01,-4.008 -3.547,-4.47 0.461,-0.461 0,0 Z m -0.406,1.995 -5.596,-5.596 0.459,-0.461 5.597,5.595 -0.46,0.462 z m 0.812,-3.987 -2.421,-2.423 0.46,-0.461 2.421,2.421 -0.46,0.463 z" />
    </g>
    <g
       transform="matrix(1.0181918,0,0,-1.0181918,711.78147,349.53637)"
       id="g8666"
       style="stroke:#000000;stroke-opacity:0.23152711">
      <path
         inkscape:connector-curvature="0"
         id="path8668"
         style="fill:#ffffff;fill-opacity:1;fill-rule:nonzero;stroke:#000000;stroke-opacity:0.23152711"
         d="m 0,0 -431.342,0 c -1.593,0 -2.894,-1.303 -2.894,-2.895 l 0,-8.795 c 0,-1.592 1.301,-2.895 2.894,-2.895 l 431.342,0 c 1.593,0 2.896,1.303 2.896,2.895 l 0,8.795 C 2.896,-1.303 1.593,0 0,0" />
    </g>
    <g
       transform="matrix(1.0181918,0,0,-1.0181918,711.78147,349.53637)"
       id="g8670"
       style="stroke:#000000;stroke-opacity:0.23152711">
      <path
         inkscape:connector-curvature="0"
         id="path8672"
         style="fill:none;stroke:#000000;stroke-width:0.83399999;stroke-linecap:butt;stroke-linejoin:miter;stroke-miterlimit:10;stroke-dasharray:none;stroke-opacity:0.23152711"
         d="m 0,0 -431.342,0 c -1.593,0 -2.894,-1.303 -2.894,-2.895 l 0,-8.795 c 0,-1.592 1.301,-2.895 2.894,-2.895 l 431.342,0 c 1.593,0 2.896,1.303 2.896,2.895 l 0,8.795 C 2.896,-1.303 1.593,0 0,0 Z" />
    </g>
    <g
       transform="matrix(1.0181918,0,0,-1.0181918,253.5742,361.10139)"
       id="g8674">
      <path
         inkscape:connector-curvature="0"
         id="path8676"
         style="fill:#a7a9ac;fill-opacity:1;fill-rule:nonzero;stroke:none"
         d="M 0,0 0,8.132 8.133,4.064 0,0 Z" />
    </g>
    <g
       transform="matrix(1.0181918,0,0,-1.0181918,246.42303,361.10139)"
       id="g8678">
      <path
         inkscape:connector-curvature="0"
         id="path8680"
         style="fill:#a7a9ac;fill-opacity:1;fill-rule:nonzero;stroke:none"
         d="M 0,0 0,8.132 -8.133,4.064 0,0 Z" />
    </g>
    <g
       transform="matrix(1.0181918,0,0,-1.0181918,711.52195,357.69178)"
       id="g8682">
      <path
         inkscape:connector-curvature="0"
         id="path8684"
         style="fill:none;stroke:#bcbec0;stroke-width:0.83399999;stroke-linecap:round;stroke-linejoin:round;stroke-miterlimit:10;stroke-dasharray:none;stroke-opacity:1"
         d="m 0,0 c 0,-2.126 -1.724,-3.85 -3.85,-3.85 -2.124,0 -3.847,1.724 -3.847,3.85 0,2.124 1.723,3.847 3.72,3.847 l 2.858,0" />
    </g>
    <g
       transform="matrix(1.0181918,0,0,-1.0181918,708.28145,351.67416)"
       id="g8686">
      <path
         inkscape:connector-curvature="0"
         id="path8688"
         style="fill:none;stroke:#bcbec0;stroke-width:0.83399999;stroke-linecap:round;stroke-linejoin:round;stroke-miterlimit:10;stroke-dasharray:none;stroke-opacity:1"
         d="M 0,0 2.063,-2.063 0,-4.126" />
    </g>
    <g
       transform="matrix(1.0181918,0,0,-1.0181918,694.38171,333.25914)"
       id="g8690">
      <path
         inkscape:connector-curvature="0"
         id="path8692"
         style="fill:#d1d3d4;fill-opacity:1;fill-rule:nonzero;stroke:none"
         d="M 0,0 -6.812,0 C -7.83,0 -8.661,-0.832 -8.661,-1.85 l 0,-6.811 c 0,-1.018 0.831,-1.85 1.849,-1.85 l 6.812,0 c 1.018,0 1.849,0.832 1.849,1.85 l 0,6.811 C 1.849,-0.832 1.018,0 0,0" />
    </g>
    <g
       transform="matrix(1.0181918,0,0,-1.0181918,687.45821,338.67236)"
       id="g8694">
      <path
         inkscape:connector-curvature="0"
         id="path8696"
         style="fill:#d81920;fill-opacity:1;fill-rule:nonzero;stroke:#ffffff;stroke-width:1.44700003;stroke-linecap:round;stroke-linejoin:round;stroke-miterlimit:10;stroke-dasharray:none;stroke-opacity:1"
         d="M 0,0 6.787,0" />
    </g>
    <g
       transform="matrix(1.0181918,0,0,-1.0181918,707.27517,333.25914)"
       id="g8698">
      <path
         inkscape:connector-curvature="0"
         id="path8700"
         style="fill:#d1d3d4;fill-opacity:1;fill-rule:nonzero;stroke:none"
         d="m 0,0 -6.813,0 c -1.016,0 -1.848,-0.832 -1.848,-1.85 l 0,-6.811 c 0,-1.018 0.832,-1.85 1.848,-1.85 l 6.813,0 c 1.018,0 1.85,0.832 1.85,1.85 l 0,6.811 C 1.85,-0.832 1.018,0 0,0" />
    </g>
    <path
       inkscape:connector-curvature="0"
       id="path8702"
       style="fill:none;stroke:#ffffff;stroke-width:1.47332358;stroke-linecap:round;stroke-linejoin:round;stroke-miterlimit:10;stroke-dasharray:none;stroke-opacity:1"
       d="m 700.35218,336.02588 6.90945,0 0,5.2946 -6.90945,0 0,-5.2946 z" />
    <g
       transform="matrix(1.0181918,0,0,-1.0181918,700.35259,337.47914)"
       id="g8704">
      <path
         inkscape:connector-curvature="0"
         id="path8706"
         style="fill:none;stroke:#ffffff;stroke-width:1.44700003;stroke-linecap:round;stroke-linejoin:round;stroke-miterlimit:10;stroke-dasharray:none;stroke-opacity:1"
         d="M 0,0 6.786,0" />
    </g>
    <g
       transform="matrix(1.0181918,0,0,-1.0181918,720.16864,333.25914)"
       id="g8708">
      <path
         inkscape:connector-curvature="0"
         id="path8710"
         style="fill:#d1d3d4;fill-opacity:1;fill-rule:nonzero;stroke:none"
         d="m 0,0 -6.812,0 c -1.017,0 -1.849,-0.832 -1.849,-1.85 l 0,-6.811 c 0,-1.018 0.832,-1.85 1.849,-1.85 l 6.812,0 c 1.018,0 1.85,0.832 1.85,1.85 l 0,6.811 C 1.85,-0.832 1.018,0 0,0" />
    </g>
    <g
       transform="matrix(1.0181918,0,0,-1.0181918,713.58216,335.49143)"
       id="g8712">
      <path
         inkscape:connector-curvature="0"
         id="path8714"
         style="fill:none;stroke:#ffffff;stroke-width:1.44700003;stroke-linecap:round;stroke-linejoin:round;stroke-miterlimit:10;stroke-dasharray:none;stroke-opacity:1"
         d="M 0,0 6.126,-6.126" />
    </g>
    <g
       transform="matrix(1.0181918,0,0,-1.0181918,713.58216,341.72887)"
       id="g8716">
      <path
         inkscape:connector-curvature="0"
         id="path8718"
         style="fill:none;stroke:#ffffff;stroke-width:1.44700003;stroke-linecap:round;stroke-linejoin:round;stroke-miterlimit:10;stroke-dasharray:none;stroke-opacity:1"
         d="M 0,0 6.126,6.126" />
    </g>
    <path
       d="m 306.52475,345.8782 0,-8.76663 c 0,-1.30837 -1.07012,-2.37849 -2.3785,-2.37849 l -8.76459,0 c -1.30838,0 -2.3785,1.07012 -2.3785,2.37849 l 0,8.76663 13.52159,0 z"
       style="fill:#bcbec0;fill-opacity:1;fill-rule:nonzero;stroke:none"
       id="path8720"
       inkscape:connector-curvature="0" />
    <path
       d="m 299.76335,336.52163 0,7.56822"
       style="fill:none;stroke:#e7e8e9;stroke-width:1.47332358;stroke-linecap:round;stroke-linejoin:round;stroke-miterlimit:10;stroke-dasharray:none;stroke-opacity:1"
       id="path8722"
       inkscape:connector-curvature="0" />
    <path
       d="m 295.97995,340.30503 7.56822,0"
       style="fill:none;stroke:#e7e8e9;stroke-width:1.47332358;stroke-linecap:round;stroke-linejoin:round;stroke-miterlimit:10;stroke-dasharray:none;stroke-opacity:1"
       id="path8724"
       inkscape:connector-curvature="0" />
    <g
       transform="matrix(1.0181918,0,0,-1.0181918,222.94301,353.22731)"
       id="g8726">
      <path
         inkscape:connector-curvature="0"
         id="path8728"
         style="fill:none;stroke:#a7a9ac;stroke-width:1.44700003;stroke-linecap:round;stroke-linejoin:miter;stroke-miterlimit:10;stroke-dasharray:none;stroke-opacity:1"
         d="M 0,0 9.709,0" />
    </g>
    <g
       transform="matrix(1.0181918,0,0,-1.0181918,222.94301,356.96194)"
       id="g8730">
      <path
         inkscape:connector-curvature="0"
         id="path8732"
         style="fill:none;stroke:#a7a9ac;stroke-width:1.44700003;stroke-linecap:round;stroke-linejoin:miter;stroke-miterlimit:10;stroke-dasharray:none;stroke-opacity:1"
         d="M 0,0 9.709,0" />
    </g>
    <g
       transform="matrix(1.0181918,0,0,-1.0181918,222.94301,360.69667)"
       id="g8734">
      <path
         inkscape:connector-curvature="0"
         id="path8736"
         style="fill:none;stroke:#a7a9ac;stroke-width:1.44700003;stroke-linecap:round;stroke-linejoin:miter;stroke-miterlimit:10;stroke-dasharray:none;stroke-opacity:1"
         d="M 0,0 9.709,0" />
    </g>
    <rect
       y="388.29303"
       x="233.14296"
       height="413.66388"
       width="476.48666"
       id="rect8738"
       style="opacity:1;fill:#ffff99;fill-opacity:1;stroke:none;stroke-width:2;stroke-linecap:round;stroke-linejoin:round;stroke-miterlimit:4;stroke-dasharray:none;stroke-dashoffset:0;stroke-opacity:1" />
    <text
       sodipodi:linespacing="125%"
       id="text8740"
       y="419.23285"
       x="409.76031"
       style="font-style:normal;font-weight:normal;font-size:28.87467003px;line-height:125%;font-family:sans-serif;letter-spacing:0px;word-spacing:0px;fill:#000000;fill-opacity:1;stroke:none;stroke-width:1px;stroke-linecap:butt;stroke-linejoin:miter;stroke-opacity:1"
       xml:space="preserve"><tspan
         style="font-style:normal;font-variant:normal;font-weight:normal;font-stretch:normal;font-size:20px;font-family:'Roboto Mono';-inkscape-font-specification:'Roboto Mono'"
         y="419.23285"
         x="409.76031"
         id="tspan8742"
         sodipodi:role="line">.container</tspan></text>
    <rect
       style="opacity:0.8;fill:none;fill-opacity:1;stroke:#000000;stroke-width:2.11020899;stroke-linecap:round;stroke-linejoin:round;stroke-miterlimit:4;stroke-dasharray:12.66125415, 12.66125415;stroke-dashoffset:0;stroke-opacity:1"
       id="rect4303"
       width="441.50134"
       height="155.97664"
       x="250.63562"
       y="446.16913" />
    <text
       xml:space="preserve"
       style="font-style:normal;font-weight:normal;font-size:28.87467003px;line-height:125%;font-family:sans-serif;letter-spacing:0px;word-spacing:0px;fill:#000000;fill-opacity:1;stroke:none;stroke-width:1px;stroke-linecap:butt;stroke-linejoin:miter;stroke-opacity:1"
       x="445.16071"
       y="470.80585"
       id="text4307"
       sodipodi:linespacing="125%"><tspan
         sodipodi:role="line"
         id="tspan4309"
         x="445.16071"
         y="470.80585"
         style="font-style:normal;font-variant:normal;font-weight:normal;font-stretch:normal;font-size:20px;font-family:'Roboto Mono';-inkscape-font-specification:'Roboto Mono'">.row</tspan></text>
    <rect
       style="opacity:1;fill:#99ff99;fill-opacity:1;stroke:none;stroke-width:1.49140716;stroke-linecap:round;stroke-linejoin:round;stroke-miterlimit:4;stroke-dasharray:none;stroke-dashoffset:0;stroke-opacity:1"
       id="rect4305"
       width="122.31385"
       height="95.664902"
       x="265.39926"
       y="483.93903" />
    <text
       sodipodi:linespacing="125%"
       id="text4311"
       y="539.17383"
       x="288.63138"
       style="font-style:normal;font-weight:normal;font-size:28.87467003px;line-height:125%;font-family:sans-serif;letter-spacing:0px;word-spacing:0px;opacity:1;fill:#000000;fill-opacity:1;stroke:none;stroke-width:1px;stroke-linecap:butt;stroke-linejoin:miter;stroke-opacity:1"
       xml:space="preserve"><tspan
         style="font-style:normal;font-variant:normal;font-weight:normal;font-stretch:normal;font-size:20px;font-family:'Roboto Mono';-inkscape-font-specification:'Roboto Mono'"
         y="539.17383"
         x="288.63138"
         id="tspan4313"
         sodipodi:role="line">.col-4</tspan></text>
    <rect
       y="484.30994"
       x="402.82202"
       height="94.923103"
       width="276.38989"
       id="rect4351"
       style="opacity:1;fill:#99ff99;fill-opacity:1;stroke:none;stroke-width:2.2332077;stroke-linecap:round;stroke-linejoin:round;stroke-miterlimit:4;stroke-dasharray:none;stroke-dashoffset:0;stroke-opacity:1" />
    <text
       xml:space="preserve"
       style="font-style:normal;font-weight:normal;font-size:28.87467003px;line-height:125%;font-family:sans-serif;letter-spacing:0px;word-spacing:0px;fill:#000000;fill-opacity:1;stroke:none;stroke-width:1px;stroke-linecap:butt;stroke-linejoin:miter;stroke-opacity:1"
       x="503.20935"
       y="541.71179"
       id="text4353"
       sodipodi:linespacing="125%"><tspan
         sodipodi:role="line"
         id="tspan4355"
         x="503.20935"
         y="541.71179"
         style="font-style:normal;font-variant:normal;font-weight:normal;font-stretch:normal;font-size:20px;font-family:'Roboto Mono';-inkscape-font-specification:'Roboto Mono'">.col-8</tspan></text>
    <rect
       y="624.16913"
       x="250.63562"
       height="155.97664"
       width="441.50134"
       id="rect5232"
       style="opacity:0.8;fill:none;fill-opacity:1;stroke:#000000;stroke-width:2.11020899;stroke-linecap:round;stroke-linejoin:round;stroke-miterlimit:4;stroke-dasharray:12.66125415, 12.66125415;stroke-dashoffset:0;stroke-opacity:1" />
    <text
       sodipodi:linespacing="125%"
       id="text5234"
       y="648.80585"
       x="445.16071"
       style="font-style:normal;font-weight:normal;font-size:28.87467003px;line-height:125%;font-family:sans-serif;letter-spacing:0px;word-spacing:0px;fill:#000000;fill-opacity:1;stroke:none;stroke-width:1px;stroke-linecap:butt;stroke-linejoin:miter;stroke-opacity:1"
       xml:space="preserve"><tspan
         style="font-style:normal;font-variant:normal;font-weight:normal;font-stretch:normal;font-size:20px;font-family:'Roboto Mono';-inkscape-font-specification:'Roboto Mono'"
         y="648.80585"
         x="445.16071"
         id="tspan5236"
         sodipodi:role="line">.row</tspan></text>
    <g
       id="g5284"
       transform="translate(-2.0000031,0)">
      <rect
         style="opacity:1;fill:#99ff99;fill-opacity:1;stroke:none;stroke-width:1.49140716;stroke-linecap:round;stroke-linejoin:round;stroke-miterlimit:4;stroke-dasharray:none;stroke-dashoffset:0;stroke-opacity:1"
         id="rect5250"
         width="122.31385"
         height="95.664902"
         x="269.39734"
         y="665.18536" />
      <text
         sodipodi:linespacing="125%"
         id="text5252"
         y="720.42017"
         x="292.62946"
         style="font-style:normal;font-weight:normal;font-size:28.87467003px;line-height:125%;font-family:sans-serif;letter-spacing:0px;word-spacing:0px;opacity:1;fill:#000000;fill-opacity:1;stroke:none;stroke-width:1px;stroke-linecap:butt;stroke-linejoin:miter;stroke-opacity:1"
         xml:space="preserve"><tspan
           style="font-style:normal;font-variant:normal;font-weight:normal;font-stretch:normal;font-size:20px;font-family:'Roboto Mono';-inkscape-font-specification:'Roboto Mono'"
           y="720.42017"
           x="292.62946"
           id="tspan5254"
           sodipodi:role="line">.col-4</tspan></text>
    </g>
    <g
       id="g5305"
       transform="translate(4.9999817,0)">
      <rect
         y="665.18536"
         x="407.39734"
         height="95.664902"
         width="122.31385"
         id="rect5256"
         style="opacity:1;fill:#99ff99;fill-opacity:1;stroke:none;stroke-width:1.49140716;stroke-linecap:round;stroke-linejoin:round;stroke-miterlimit:4;stroke-dasharray:none;stroke-dashoffset:0;stroke-opacity:1" />
      <text
         xml:space="preserve"
         style="font-style:normal;font-weight:normal;font-size:28.87467003px;line-height:125%;font-family:sans-serif;letter-spacing:0px;word-spacing:0px;opacity:1;fill:#000000;fill-opacity:1;stroke:none;stroke-width:1px;stroke-linecap:butt;stroke-linejoin:miter;stroke-opacity:1"
         x="430.62946"
         y="720.42017"
         id="text5258"
         sodipodi:linespacing="125%"><tspan
           sodipodi:role="line"
           id="tspan5260"
           x="430.62946"
           y="720.42017"
           style="font-style:normal;font-variant:normal;font-weight:normal;font-stretch:normal;font-size:20px;font-family:'Roboto Mono';-inkscape-font-specification:'Roboto Mono'">.col-4</tspan></text>
    </g>
    <g
       id="g5310"
       transform="translate(-3.0664062e-6,0)">
      <rect
         style="opacity:1;fill:#99ff99;fill-opacity:1;stroke:none;stroke-width:1.49140716;stroke-linecap:round;stroke-linejoin:round;stroke-miterlimit:4;stroke-dasharray:none;stroke-dashoffset:0;stroke-opacity:1"
         id="rect5262"
         width="122.31385"
         height="95.664902"
         x="557.39734"
         y="665.18536" />
      <text
         sodipodi:linespacing="125%"
         id="text5264"
         y="720.42017"
         x="580.62946"
         style="font-style:normal;font-weight:normal;font-size:28.87467003px;line-height:125%;font-family:sans-serif;letter-spacing:0px;word-spacing:0px;opacity:1;fill:#000000;fill-opacity:1;stroke:none;stroke-width:1px;stroke-linecap:butt;stroke-linejoin:miter;stroke-opacity:1"
         xml:space="preserve"><tspan
           style="font-style:normal;font-variant:normal;font-weight:normal;font-stretch:normal;font-size:20px;font-family:'Roboto Mono';-inkscape-font-specification:'Roboto Mono'"
           y="720.42017"
           x="580.62946"
           id="tspan5266"
           sodipodi:role="line">.col-4</tspan></text>
    </g>
  </g>
</svg>
