<?xml version="1.0" encoding="UTF-8" standalone="no"?>
<!-- Created with Inkscape (http://www.inkscape.org/) -->

<svg
   xmlns:dc="http://purl.org/dc/elements/1.1/"
   xmlns:cc="http://creativecommons.org/ns#"
   xmlns:rdf="http://www.w3.org/1999/02/22-rdf-syntax-ns#"
   xmlns:svg="http://www.w3.org/2000/svg"
   xmlns="http://www.w3.org/2000/svg"
   xmlns:sodipodi="http://sodipodi.sourceforge.net/DTD/sodipodi-0.dtd"
   xmlns:inkscape="http://www.inkscape.org/namespaces/inkscape"
   width="154.61438mm"
   height="103.8411mm"
   viewBox="0 0 547.84623 367.94092"
   id="svg7682"
   version="1.1"
   inkscape:version="0.91 r13725"
   sodipodi:docname="bGridColumns.svg"
   inkscape:export-filename="/home/raul/Escritorio/websites/rauljesus.xyz/web/docs/bootstrap/imgBootstrap/bGridColumns.png"
   inkscape:export-xdpi="90"
   inkscape:export-ydpi="90">
  <defs
     id="defs7684">
    <clipPath
       clipPathUnits="userSpaceOnUse"
       id="clipPath18">
      <path
         d="M 0,980 1400,980 1400,0 0,0 0,980 Z"
         id="path20"
         inkscape:connector-curvature="0" />
    </clipPath>
    <clipPath
       clipPathUnits="userSpaceOnUse"
       id="clipPath52">
      <path
         d="M 0,980 1400,980 1400,0 0,0 0,980 Z"
         id="path54"
         inkscape:connector-curvature="0" />
    </clipPath>
    <clipPath
       clipPathUnits="userSpaceOnUse"
       id="clipPath18-3">
      <path
         d="M 0,980 1400,980 1400,0 0,0 0,980 Z"
         id="path20-6"
         inkscape:connector-curvature="0" />
    </clipPath>
  </defs>
  <sodipodi:namedview
     id="base"
     pagecolor="#ffffff"
     bordercolor="#666666"
     borderopacity="1.0"
     inkscape:pageopacity="0.0"
     inkscape:pageshadow="2"
     inkscape:zoom="0.78802287"
     inkscape:cx="259.29086"
     inkscape:cy="202.93387"
     inkscape:document-units="px"
     inkscape:current-layer="layer1"
     showgrid="false"
     inkscape:window-width="1366"
     inkscape:window-height="704"
     inkscape:window-x="0"
     inkscape:window-y="27"
     inkscape:window-maximized="1"
     fit-margin-top="5"
     fit-margin-right="5"
     fit-margin-bottom="5"
     fit-margin-left="5" />
  <metadata
     id="metadata7687">
    <rdf:RDF>
      <cc:Work
         rdf:about="">
        <dc:format>image/svg+xml</dc:format>
        <dc:type
           rdf:resource="http://purl.org/dc/dcmitype/StillImage" />
        <dc:title></dc:title>
      </cc:Work>
    </rdf:RDF>
  </metadata>
  <g
     inkscape:label="Capa 1"
     inkscape:groupmode="layer"
     id="layer1"
     transform="translate(-197.46317,-310.68838)">
    <g
       transform="matrix(0.81455345,0,0,0.81455345,166.51058,137.82216)"
       id="g8648">
      <g
         clip-path="url(#clipPath18-3)"
         id="g8650"
         transform="matrix(1.25,0,0,-1.25,-878.19054,820.28307)"
         style="stroke:#000000;stroke-opacity:0.23152711">
        <g
           transform="translate(1247.499,468.5488)"
           id="g8652"
           style="stroke:#000000;stroke-opacity:0.23152711">
          <path
             inkscape:connector-curvature="0"
             id="path8654"
             style="fill:#e7e8e9;fill-opacity:1;fill-rule:nonzero;stroke:#000000;stroke-opacity:0.23152711"
             d="m 0,0 -491.036,0 c -3.086,0 -5.61,-2.524 -5.61,-5.61 l 0,-314.348 c 0,-3.085 2.524,-5.609 5.61,-5.609 l 491.036,0 c 3.087,0 5.611,2.524 5.611,5.609 l 0,314.348 C 5.611,-2.524 3.087,0 0,0" />
        </g>
        <g
           transform="translate(750.8525,427.4121)"
           id="g8656"
           style="stroke:#000000;stroke-opacity:0.23152711">
          <path
             inkscape:connector-curvature="0"
             id="path8658"
             style="fill:#dcddde;fill-opacity:1;fill-rule:nonzero;stroke:#000000;stroke-opacity:0.23152711"
             d="m 0,0 0,33.086 c 0,1.284 1.051,2.336 2.337,2.336 l 66.504,0 c 1.286,0 2.336,-1.052 2.336,-2.336 l 0,-8.61 431.08,0 L 502.257,0 0,0 Z" />
        </g>
        <path
           inkscape:connector-curvature="0"
           id="path8660"
           style="fill:#ffffff;fill-opacity:1;fill-rule:nonzero;stroke:#000000;stroke-opacity:0.23152711"
           d="m 1253.11,156.322 -502.258,0 0,273.804 502.258,0 0,-273.804 z" />
        <g
           transform="translate(1249.8154,150.3389)"
           id="g8662"
           style="stroke:#000000;stroke-opacity:0.23152711">
          <path
             inkscape:connector-curvature="0"
             id="path8664"
             style="fill:#d1d3d4;fill-opacity:1;fill-rule:nonzero;stroke:#000000;stroke-opacity:0.23152711"
             d="M 0,0 -4.01,-4.008 -3.547,-4.47 0.461,-0.461 0,0 Z m -0.406,1.995 -5.596,-5.596 0.459,-0.461 5.597,5.595 -0.46,0.462 z m 0.812,-3.987 -2.421,-2.423 0.46,-0.461 2.421,2.421 -0.46,0.463 z" />
        </g>
        <g
           transform="translate(1238.0811,448.2949)"
           id="g8666"
           style="stroke:#000000;stroke-opacity:0.23152711">
          <path
             inkscape:connector-curvature="0"
             id="path8668"
             style="fill:#ffffff;fill-opacity:1;fill-rule:nonzero;stroke:#000000;stroke-opacity:0.23152711"
             d="m 0,0 -431.342,0 c -1.593,0 -2.894,-1.303 -2.894,-2.895 l 0,-8.795 c 0,-1.592 1.301,-2.895 2.894,-2.895 l 431.342,0 c 1.593,0 2.896,1.303 2.896,2.895 l 0,8.795 C 2.896,-1.303 1.593,0 0,0" />
        </g>
        <g
           transform="translate(1238.0811,448.2949)"
           id="g8670"
           style="stroke:#000000;stroke-opacity:0.23152711">
          <path
             inkscape:connector-curvature="0"
             id="path8672"
             style="fill:none;stroke:#000000;stroke-width:0.83399999;stroke-linecap:butt;stroke-linejoin:miter;stroke-miterlimit:10;stroke-dasharray:none;stroke-opacity:0.23152711"
             d="m 0,0 -431.342,0 c -1.593,0 -2.894,-1.303 -2.894,-2.895 l 0,-8.795 c 0,-1.592 1.301,-2.895 2.894,-2.895 l 431.342,0 c 1.593,0 2.896,1.303 2.896,2.895 l 0,8.795 C 2.896,-1.303 1.593,0 0,0 Z" />
        </g>
      </g>
      <g
         id="g8674"
         transform="matrix(1.25,0,0,-1.25,106.88509,274.11244)">
        <path
           d="M 0,0 0,8.132 8.133,4.064 0,0 Z"
           style="fill:#a7a9ac;fill-opacity:1;fill-rule:nonzero;stroke:none"
           id="path8676"
           inkscape:connector-curvature="0" />
      </g>
      <g
         id="g8678"
         transform="matrix(1.25,0,0,-1.25,98.105835,274.11244)">
        <path
           d="M 0,0 0,8.132 -8.133,4.064 0,0 Z"
           style="fill:#a7a9ac;fill-opacity:1;fill-rule:nonzero;stroke:none"
           id="path8680"
           inkscape:connector-curvature="0" />
      </g>
      <g
         id="g8682"
         transform="matrix(1.25,0,0,-1.25,669.09221,269.92657)">
        <path
           d="m 0,0 c 0,-2.126 -1.724,-3.85 -3.85,-3.85 -2.124,0 -3.847,1.724 -3.847,3.85 0,2.124 1.723,3.847 3.72,3.847 l 2.858,0"
           style="fill:none;stroke:#bcbec0;stroke-width:0.83399999;stroke-linecap:round;stroke-linejoin:round;stroke-miterlimit:10;stroke-dasharray:none;stroke-opacity:1"
           id="path8684"
           inkscape:connector-curvature="0" />
      </g>
      <g
         id="g8686"
         transform="matrix(1.25,0,0,-1.25,665.11396,262.53894)">
        <path
           d="M 0,0 2.063,-2.063 0,-4.126"
           style="fill:none;stroke:#bcbec0;stroke-width:0.83399999;stroke-linecap:round;stroke-linejoin:round;stroke-miterlimit:10;stroke-dasharray:none;stroke-opacity:1"
           id="path8688"
           inkscape:connector-curvature="0" />
      </g>
      <g
         id="g8690"
         transform="matrix(1.25,0,0,-1.25,648.04971,239.93144)">
        <path
           d="M 0,0 -6.812,0 C -7.83,0 -8.661,-0.832 -8.661,-1.85 l 0,-6.811 c 0,-1.018 0.831,-1.85 1.849,-1.85 l 6.812,0 c 1.018,0 1.849,0.832 1.849,1.85 l 0,6.811 C 1.849,-0.832 1.018,0 0,0"
           style="fill:#d1d3d4;fill-opacity:1;fill-rule:nonzero;stroke:none"
           id="path8692"
           inkscape:connector-curvature="0" />
      </g>
      <g
         id="g8694"
         transform="matrix(1.25,0,0,-1.25,639.54996,246.57707)">
        <path
           d="M 0,0 6.787,0"
           style="fill:#d81920;fill-opacity:1;fill-rule:nonzero;stroke:#ffffff;stroke-width:1.44700003;stroke-linecap:round;stroke-linejoin:round;stroke-miterlimit:10;stroke-dasharray:none;stroke-opacity:1"
           id="path8696"
           inkscape:connector-curvature="0" />
      </g>
      <g
         id="g8698"
         transform="matrix(1.25,0,0,-1.25,663.87858,239.93144)">
        <path
           d="m 0,0 -6.813,0 c -1.016,0 -1.848,-0.832 -1.848,-1.85 l 0,-6.811 c 0,-1.018 0.832,-1.85 1.848,-1.85 l 6.813,0 c 1.018,0 1.85,0.832 1.85,1.85 l 0,6.811 C 1.85,-0.832 1.018,0 0,0"
           style="fill:#d1d3d4;fill-opacity:1;fill-rule:nonzero;stroke:none"
           id="path8700"
           inkscape:connector-curvature="0" />
      </g>
      <path
         d="m 655.37946,243.32807 8.4825,0 0,6.5 -8.4825,0 0,-6.5 z"
         style="fill:none;stroke:#ffffff;stroke-width:1.80875003;stroke-linecap:round;stroke-linejoin:round;stroke-miterlimit:10;stroke-dasharray:none;stroke-opacity:1"
         id="path8702"
         inkscape:connector-curvature="0" />
      <g
         id="g8704"
         transform="matrix(1.25,0,0,-1.25,655.37996,245.11219)">
        <path
           d="M 0,0 6.786,0"
           style="fill:none;stroke:#ffffff;stroke-width:1.44700003;stroke-linecap:round;stroke-linejoin:round;stroke-miterlimit:10;stroke-dasharray:none;stroke-opacity:1"
           id="path8706"
           inkscape:connector-curvature="0" />
      </g>
      <g
         id="g8708"
         transform="matrix(1.25,0,0,-1.25,679.70746,239.93144)">
        <path
           d="m 0,0 -6.812,0 c -1.017,0 -1.849,-0.832 -1.849,-1.85 l 0,-6.811 c 0,-1.018 0.832,-1.85 1.849,-1.85 l 6.812,0 c 1.018,0 1.85,0.832 1.85,1.85 l 0,6.811 C 1.85,-0.832 1.018,0 0,0"
           style="fill:#d1d3d4;fill-opacity:1;fill-rule:nonzero;stroke:none"
           id="path8710"
           inkscape:connector-curvature="0" />
      </g>
      <g
         id="g8712"
         transform="matrix(1.25,0,0,-1.25,671.62146,242.67194)">
        <path
           d="M 0,0 6.126,-6.126"
           style="fill:none;stroke:#ffffff;stroke-width:1.44700003;stroke-linecap:round;stroke-linejoin:round;stroke-miterlimit:10;stroke-dasharray:none;stroke-opacity:1"
           id="path8714"
           inkscape:connector-curvature="0" />
      </g>
      <g
         id="g8716"
         transform="matrix(1.25,0,0,-1.25,671.62146,250.32944)">
        <path
           d="M 0,0 6.126,6.126"
           style="fill:none;stroke:#ffffff;stroke-width:1.44700003;stroke-linecap:round;stroke-linejoin:round;stroke-miterlimit:10;stroke-dasharray:none;stroke-opacity:1"
           id="path8718"
           inkscape:connector-curvature="0" />
      </g>
      <path
         inkscape:connector-curvature="0"
         id="path8720"
         style="fill:#bcbec0;fill-opacity:1;fill-rule:nonzero;stroke:none"
         d="m 171.89071,255.42344 0,-10.7625 c 0,-1.60625 -1.31375,-2.92 -2.92,-2.92 l -10.76,0 c -1.60625,0 -2.92,1.31375 -2.92,2.92 l 0,10.7625 16.6,0 z" />
      <path
         inkscape:connector-curvature="0"
         id="path8722"
         style="fill:none;stroke:#e7e8e9;stroke-width:1.80875003;stroke-linecap:round;stroke-linejoin:round;stroke-miterlimit:10;stroke-dasharray:none;stroke-opacity:1"
         d="m 163.58996,243.93669 0,9.29125" />
      <path
         inkscape:connector-curvature="0"
         id="path8724"
         style="fill:none;stroke:#e7e8e9;stroke-width:1.80875003;stroke-linecap:round;stroke-linejoin:round;stroke-miterlimit:10;stroke-dasharray:none;stroke-opacity:1"
         d="m 158.94521,248.58144 9.29125,0" />
      <g
         id="g8726"
         transform="matrix(1.25,0,0,-1.25,69.28021,264.44569)">
        <path
           d="M 0,0 9.709,0"
           style="fill:none;stroke:#a7a9ac;stroke-width:1.44700003;stroke-linecap:round;stroke-linejoin:miter;stroke-miterlimit:10;stroke-dasharray:none;stroke-opacity:1"
           id="path8728"
           inkscape:connector-curvature="0" />
      </g>
      <g
         id="g8730"
         transform="matrix(1.25,0,0,-1.25,69.28021,269.03057)">
        <path
           d="M 0,0 9.709,0"
           style="fill:none;stroke:#a7a9ac;stroke-width:1.44700003;stroke-linecap:round;stroke-linejoin:miter;stroke-miterlimit:10;stroke-dasharray:none;stroke-opacity:1"
           id="path8732"
           inkscape:connector-curvature="0" />
      </g>
      <g
         id="g8734"
         transform="matrix(1.25,0,0,-1.25,69.28021,273.61557)">
        <path
           d="M 0,0 9.709,0"
           style="fill:none;stroke:#a7a9ac;stroke-width:1.44700003;stroke-linecap:round;stroke-linejoin:miter;stroke-miterlimit:10;stroke-dasharray:none;stroke-opacity:1"
           id="path8736"
           inkscape:connector-curvature="0" />
      </g>
    </g>
    <rect
       y="388.29303"
       x="233.14296"
       height="229.75217"
       width="476.48666"
       id="rect8738"
       style="opacity:0.4;fill:#dbffdb;fill-opacity:1;stroke:#000000;stroke-width:2;stroke-linecap:round;stroke-linejoin:round;stroke-miterlimit:4;stroke-dasharray:8, 8;stroke-dashoffset:0;stroke-opacity:1" />
    <text
       sodipodi:linespacing="125%"
       id="text8740"
       y="419.23285"
       x="409.76031"
       style="font-style:normal;font-weight:normal;font-size:28.87467003px;line-height:125%;font-family:sans-serif;letter-spacing:0px;word-spacing:0px;fill:#000000;fill-opacity:1;stroke:none;stroke-width:1px;stroke-linecap:butt;stroke-linejoin:miter;stroke-opacity:1"
       xml:space="preserve"><tspan
         style="font-style:normal;font-variant:normal;font-weight:normal;font-stretch:normal;font-size:20px;font-family:'Roboto Mono';-inkscape-font-specification:'Roboto Mono'"
         y="419.23285"
         x="409.76031"
         id="tspan8742"
         sodipodi:role="line">.container</tspan></text>
    <rect
       style="opacity:0.4;fill:#b380ff;fill-opacity:1;stroke:#000000;stroke-width:2.11020899;stroke-linecap:round;stroke-linejoin:round;stroke-miterlimit:4;stroke-dasharray:8.44083595, 8.44083595000000031;stroke-dashoffset:0;stroke-opacity:1"
       id="rect4303"
       width="441.50134"
       height="155.97664"
       x="250.63562"
       y="446.16913" />
    <text
       xml:space="preserve"
       style="font-style:normal;font-weight:normal;font-size:28.87467003px;line-height:125%;font-family:sans-serif;letter-spacing:0px;word-spacing:0px;fill:#000000;fill-opacity:1;stroke:none;stroke-width:1px;stroke-linecap:butt;stroke-linejoin:miter;stroke-opacity:1"
       x="445.16071"
       y="470.80585"
       id="text4307"
       sodipodi:linespacing="125%"><tspan
         sodipodi:role="line"
         id="tspan4309"
         x="445.16071"
         y="470.80585"
         style="font-style:normal;font-variant:normal;font-weight:normal;font-stretch:normal;font-size:20px;font-family:'Roboto Mono';-inkscape-font-specification:'Roboto Mono'">.row</tspan></text>
    <rect
       style="opacity:1;fill:#ffdbdb;fill-opacity:1;stroke:none;stroke-width:1.87576568;stroke-linecap:round;stroke-linejoin:round;stroke-miterlimit:4;stroke-dasharray:none;stroke-dashoffset:0;stroke-opacity:1"
       id="rect4305"
       width="113.04651"
       height="95.28054"
       x="267.59143"
       y="486.66919" />
    <text
       sodipodi:linespacing="125%"
       id="text4311"
       y="541.71179"
       x="286.18988"
       style="font-style:normal;font-weight:normal;font-size:28.87467003px;line-height:125%;font-family:sans-serif;letter-spacing:0px;word-spacing:0px;fill:#000000;fill-opacity:1;stroke:none;stroke-width:1px;stroke-linecap:butt;stroke-linejoin:miter;stroke-opacity:1"
       xml:space="preserve"><tspan
         style="font-style:normal;font-variant:normal;font-weight:normal;font-stretch:normal;font-size:20px;font-family:'Roboto Mono';-inkscape-font-specification:'Roboto Mono'"
         y="541.71179"
         x="286.18988"
         id="tspan4313"
         sodipodi:role="line">.col-4</tspan></text>
    <rect
       y="486.66919"
       x="392.1463"
       height="95.28054"
       width="283.09235"
       id="rect4351"
       style="opacity:1;fill:#ffdbdb;fill-opacity:1;stroke:none;stroke-width:1.87576568;stroke-linecap:round;stroke-linejoin:round;stroke-miterlimit:4;stroke-dasharray:none;stroke-dashoffset:0;stroke-opacity:1" />
    <text
       xml:space="preserve"
       style="font-style:normal;font-weight:normal;font-size:28.87467003px;line-height:125%;font-family:sans-serif;letter-spacing:0px;word-spacing:0px;fill:#000000;fill-opacity:1;stroke:none;stroke-width:1px;stroke-linecap:butt;stroke-linejoin:miter;stroke-opacity:1"
       x="495.88486"
       y="541.71179"
       id="text4353"
       sodipodi:linespacing="125%"><tspan
         sodipodi:role="line"
         id="tspan4355"
         x="495.88486"
         y="541.71179"
         style="font-style:normal;font-variant:normal;font-weight:normal;font-stretch:normal;font-size:20px;font-family:'Roboto Mono';-inkscape-font-specification:'Roboto Mono'">.col-8</tspan></text>
  </g>
</svg>
