<?xml version="1.0" encoding="UTF-8" standalone="no"?>
<!-- Created with Inkscape (http://www.inkscape.org/) -->

<svg
   xmlns:dc="http://purl.org/dc/elements/1.1/"
   xmlns:cc="http://creativecommons.org/ns#"
   xmlns:rdf="http://www.w3.org/1999/02/22-rdf-syntax-ns#"
   xmlns:svg="http://www.w3.org/2000/svg"
   xmlns="http://www.w3.org/2000/svg"
   xmlns:sodipodi="http://sodipodi.sourceforge.net/DTD/sodipodi-0.dtd"
   xmlns:inkscape="http://www.inkscape.org/namespaces/inkscape"
   width="154.61438mm"
   height="155.06456mm"
   viewBox="0 0 547.84623 549.44136"
   id="svg7682"
   version="1.1"
   inkscape:version="0.91 r13725"
   sodipodi:docname="bGridMultipleRows.svg"
   inkscape:export-filename="/home/raul/Escritorio/websites/rauljesus.xyz/web/docs/bootstrap/imgBootstrap/bGridMultipleRows.png"
   inkscape:export-xdpi="90"
   inkscape:export-ydpi="90">
  <defs
     id="defs7684">
    <clipPath
       clipPathUnits="userSpaceOnUse"
       id="clipPath18">
      <path
         d="M 0,980 1400,980 1400,0 0,0 0,980 Z"
         id="path20"
         inkscape:connector-curvature="0" />
    </clipPath>
    <clipPath
       clipPathUnits="userSpaceOnUse"
       id="clipPath52">
      <path
         d="M 0,980 1400,980 1400,0 0,0 0,980 Z"
         id="path54"
         inkscape:connector-curvature="0" />
    </clipPath>
    <clipPath
       clipPathUnits="userSpaceOnUse"
       id="clipPath18-3">
      <path
         d="M 0,980 1400,980 1400,0 0,0 0,980 Z"
         id="path20-6"
         inkscape:connector-curvature="0" />
    </clipPath>
  </defs>
  <sodipodi:namedview
     id="base"
     pagecolor="#ffffff"
     bordercolor="#666666"
     borderopacity="1.0"
     inkscape:pageopacity="0.0"
     inkscape:pageshadow="2"
     inkscape:zoom="0.83059009"
     inkscape:cx="303.13685"
     inkscape:cy="230.68243"
     inkscape:document-units="px"
     inkscape:current-layer="layer1"
     showgrid="false"
     inkscape:window-width="1366"
     inkscape:window-height="704"
     inkscape:window-x="0"
     inkscape:window-y="27"
     inkscape:window-maximized="1"
     fit-margin-top="5"
     fit-margin-right="5"
     fit-margin-bottom="5"
     fit-margin-left="5"
     showguides="true"
     inkscape:guide-bbox="true" />
  <metadata
     id="metadata7687">
    <rdf:RDF>
      <cc:Work
         rdf:about="">
        <dc:format>image/svg+xml</dc:format>
        <dc:type
           rdf:resource="http://purl.org/dc/dcmitype/StillImage" />
        <dc:title></dc:title>
      </cc:Work>
    </rdf:RDF>
  </metadata>
  <g
     inkscape:label="Capa 1"
     inkscape:groupmode="layer"
     id="layer1"
     transform="translate(-197.46317,-310.54894)">
    <g
       id="g4619"
       inkscape:export-xdpi="90"
       inkscape:export-ydpi="90">
      <g
         style="stroke:#000000;stroke-opacity:0.23152711"
         id="g8652"
         transform="matrix(1.0176991,0,0,-1.5739749,721.24973,329.05246)">
        <path
           d="m 0,0 -491.036,0 c -3.086,0 -5.61,-2.524 -5.61,-5.61 l 0,-314.348 c 0,-3.085 2.524,-5.609 5.61,-5.609 l 491.036,0 c 3.087,0 5.611,2.524 5.611,5.609 l 0,314.348 C 5.611,-2.524 3.087,0 0,0"
           style="fill:#e7e8e9;fill-opacity:1;fill-rule:nonzero;stroke:#000000;stroke-opacity:0.23152711"
           id="path8654"
           inkscape:connector-curvature="0" />
      </g>
      <g
         style="stroke:#000000;stroke-opacity:0.23152711"
         id="g8656"
         transform="matrix(1.0181918,0,0,-1.0181918,215.68931,370.79906)">
        <path
           d="m 0,0 0,33.086 c 0,1.284 1.051,2.336 2.337,2.336 l 66.504,0 c 1.286,0 2.336,-1.052 2.336,-2.336 l 0,-8.61 431.08,0 L 502.257,0 0,0 Z"
           style="fill:#dcddde;fill-opacity:1;fill-rule:nonzero;stroke:#000000;stroke-opacity:0.23152711"
           id="path8658"
           inkscape:connector-curvature="0" />
      </g>
      <path
         d="m 726.94137,824.99595 -511.11016,0 0,-456.81775 511.11016,0 0,456.81775 z"
         style="fill:#ffffff;fill-opacity:1;fill-rule:nonzero;stroke:#000000;stroke-width:1.30300307;stroke-opacity:0.23152711"
         id="path8660"
         inkscape:connector-curvature="0" />
      <g
         style="stroke:#000000;stroke-opacity:0.23152711"
         id="g8662"
         transform="matrix(1.0181918,0,0,-1.0181918,723.72924,832.91272)">
        <path
           d="M 0,0 -4.01,-4.008 -3.547,-4.47 0.461,-0.461 0,0 Z m -0.406,1.995 -5.596,-5.596 0.459,-0.461 5.597,5.595 -0.46,0.462 z m 0.812,-3.987 -2.421,-2.423 0.46,-0.461 2.421,2.421 -0.46,0.463 z"
           style="fill:#d1d3d4;fill-opacity:1;fill-rule:nonzero;stroke:#000000;stroke-opacity:0.23152711"
           id="path8664"
           inkscape:connector-curvature="0" />
      </g>
      <g
         style="stroke:#000000;stroke-opacity:0.23152711"
         id="g8666"
         transform="matrix(1.0181918,0,0,-1.0181918,711.78147,349.53637)">
        <path
           d="m 0,0 -431.342,0 c -1.593,0 -2.894,-1.303 -2.894,-2.895 l 0,-8.795 c 0,-1.592 1.301,-2.895 2.894,-2.895 l 431.342,0 c 1.593,0 2.896,1.303 2.896,2.895 l 0,8.795 C 2.896,-1.303 1.593,0 0,0"
           style="fill:#ffffff;fill-opacity:1;fill-rule:nonzero;stroke:#000000;stroke-opacity:0.23152711"
           id="path8668"
           inkscape:connector-curvature="0" />
      </g>
      <g
         style="stroke:#000000;stroke-opacity:0.23152711"
         id="g8670"
         transform="matrix(1.0181918,0,0,-1.0181918,711.78147,349.53637)">
        <path
           d="m 0,0 -431.342,0 c -1.593,0 -2.894,-1.303 -2.894,-2.895 l 0,-8.795 c 0,-1.592 1.301,-2.895 2.894,-2.895 l 431.342,0 c 1.593,0 2.896,1.303 2.896,2.895 l 0,8.795 C 2.896,-1.303 1.593,0 0,0 Z"
           style="fill:none;stroke:#000000;stroke-width:0.83399999;stroke-linecap:butt;stroke-linejoin:miter;stroke-miterlimit:10;stroke-dasharray:none;stroke-opacity:0.23152711"
           id="path8672"
           inkscape:connector-curvature="0" />
      </g>
      <g
         id="g8674"
         transform="matrix(1.0181918,0,0,-1.0181918,253.5742,361.10139)">
        <path
           d="M 0,0 0,8.132 8.133,4.064 0,0 Z"
           style="fill:#a7a9ac;fill-opacity:1;fill-rule:nonzero;stroke:none"
           id="path8676"
           inkscape:connector-curvature="0" />
      </g>
      <g
         id="g8678"
         transform="matrix(1.0181918,0,0,-1.0181918,246.42303,361.10139)">
        <path
           d="M 0,0 0,8.132 -8.133,4.064 0,0 Z"
           style="fill:#a7a9ac;fill-opacity:1;fill-rule:nonzero;stroke:none"
           id="path8680"
           inkscape:connector-curvature="0" />
      </g>
      <g
         id="g8682"
         transform="matrix(1.0181918,0,0,-1.0181918,711.52195,357.69178)">
        <path
           d="m 0,0 c 0,-2.126 -1.724,-3.85 -3.85,-3.85 -2.124,0 -3.847,1.724 -3.847,3.85 0,2.124 1.723,3.847 3.72,3.847 l 2.858,0"
           style="fill:none;stroke:#bcbec0;stroke-width:0.83399999;stroke-linecap:round;stroke-linejoin:round;stroke-miterlimit:10;stroke-dasharray:none;stroke-opacity:1"
           id="path8684"
           inkscape:connector-curvature="0" />
      </g>
      <g
         id="g8686"
         transform="matrix(1.0181918,0,0,-1.0181918,708.28145,351.67416)">
        <path
           d="M 0,0 2.063,-2.063 0,-4.126"
           style="fill:none;stroke:#bcbec0;stroke-width:0.83399999;stroke-linecap:round;stroke-linejoin:round;stroke-miterlimit:10;stroke-dasharray:none;stroke-opacity:1"
           id="path8688"
           inkscape:connector-curvature="0" />
      </g>
      <g
         id="g8690"
         transform="matrix(1.0181918,0,0,-1.0181918,694.38171,333.25914)">
        <path
           d="M 0,0 -6.812,0 C -7.83,0 -8.661,-0.832 -8.661,-1.85 l 0,-6.811 c 0,-1.018 0.831,-1.85 1.849,-1.85 l 6.812,0 c 1.018,0 1.849,0.832 1.849,1.85 l 0,6.811 C 1.849,-0.832 1.018,0 0,0"
           style="fill:#d1d3d4;fill-opacity:1;fill-rule:nonzero;stroke:none"
           id="path8692"
           inkscape:connector-curvature="0" />
      </g>
      <g
         id="g8694"
         transform="matrix(1.0181918,0,0,-1.0181918,687.45821,338.67236)">
        <path
           d="M 0,0 6.787,0"
           style="fill:#d81920;fill-opacity:1;fill-rule:nonzero;stroke:#ffffff;stroke-width:1.44700003;stroke-linecap:round;stroke-linejoin:round;stroke-miterlimit:10;stroke-dasharray:none;stroke-opacity:1"
           id="path8696"
           inkscape:connector-curvature="0" />
      </g>
      <g
         id="g8698"
         transform="matrix(1.0181918,0,0,-1.0181918,707.27517,333.25914)">
        <path
           d="m 0,0 -6.813,0 c -1.016,0 -1.848,-0.832 -1.848,-1.85 l 0,-6.811 c 0,-1.018 0.832,-1.85 1.848,-1.85 l 6.813,0 c 1.018,0 1.85,0.832 1.85,1.85 l 0,6.811 C 1.85,-0.832 1.018,0 0,0"
           style="fill:#d1d3d4;fill-opacity:1;fill-rule:nonzero;stroke:none"
           id="path8700"
           inkscape:connector-curvature="0" />
      </g>
      <path
         d="m 700.35218,336.02588 6.90945,0 0,5.2946 -6.90945,0 0,-5.2946 z"
         style="fill:none;stroke:#ffffff;stroke-width:1.47332358;stroke-linecap:round;stroke-linejoin:round;stroke-miterlimit:10;stroke-dasharray:none;stroke-opacity:1"
         id="path8702"
         inkscape:connector-curvature="0" />
      <g
         id="g8704"
         transform="matrix(1.0181918,0,0,-1.0181918,700.35259,337.47914)">
        <path
           d="M 0,0 6.786,0"
           style="fill:none;stroke:#ffffff;stroke-width:1.44700003;stroke-linecap:round;stroke-linejoin:round;stroke-miterlimit:10;stroke-dasharray:none;stroke-opacity:1"
           id="path8706"
           inkscape:connector-curvature="0" />
      </g>
      <g
         id="g8708"
         transform="matrix(1.0181918,0,0,-1.0181918,720.16864,333.25914)">
        <path
           d="m 0,0 -6.812,0 c -1.017,0 -1.849,-0.832 -1.849,-1.85 l 0,-6.811 c 0,-1.018 0.832,-1.85 1.849,-1.85 l 6.812,0 c 1.018,0 1.85,0.832 1.85,1.85 l 0,6.811 C 1.85,-0.832 1.018,0 0,0"
           style="fill:#d1d3d4;fill-opacity:1;fill-rule:nonzero;stroke:none"
           id="path8710"
           inkscape:connector-curvature="0" />
      </g>
      <g
         id="g8712"
         transform="matrix(1.0181918,0,0,-1.0181918,713.58216,335.49143)">
        <path
           d="M 0,0 6.126,-6.126"
           style="fill:none;stroke:#ffffff;stroke-width:1.44700003;stroke-linecap:round;stroke-linejoin:round;stroke-miterlimit:10;stroke-dasharray:none;stroke-opacity:1"
           id="path8714"
           inkscape:connector-curvature="0" />
      </g>
      <g
         id="g8716"
         transform="matrix(1.0181918,0,0,-1.0181918,713.58216,341.72887)">
        <path
           d="M 0,0 6.126,6.126"
           style="fill:none;stroke:#ffffff;stroke-width:1.44700003;stroke-linecap:round;stroke-linejoin:round;stroke-miterlimit:10;stroke-dasharray:none;stroke-opacity:1"
           id="path8718"
           inkscape:connector-curvature="0" />
      </g>
      <path
         inkscape:connector-curvature="0"
         id="path8720"
         style="fill:#bcbec0;fill-opacity:1;fill-rule:nonzero;stroke:none"
         d="m 306.52475,345.8782 0,-8.76663 c 0,-1.30837 -1.07012,-2.37849 -2.3785,-2.37849 l -8.76459,0 c -1.30838,0 -2.3785,1.07012 -2.3785,2.37849 l 0,8.76663 13.52159,0 z" />
      <path
         inkscape:connector-curvature="0"
         id="path8722"
         style="fill:none;stroke:#e7e8e9;stroke-width:1.47332358;stroke-linecap:round;stroke-linejoin:round;stroke-miterlimit:10;stroke-dasharray:none;stroke-opacity:1"
         d="m 299.76335,336.52163 0,7.56822" />
      <path
         inkscape:connector-curvature="0"
         id="path8724"
         style="fill:none;stroke:#e7e8e9;stroke-width:1.47332358;stroke-linecap:round;stroke-linejoin:round;stroke-miterlimit:10;stroke-dasharray:none;stroke-opacity:1"
         d="m 295.97995,340.30503 7.56822,0" />
      <g
         id="g8726"
         transform="matrix(1.0181918,0,0,-1.0181918,222.94301,353.22731)">
        <path
           d="M 0,0 9.709,0"
           style="fill:none;stroke:#a7a9ac;stroke-width:1.44700003;stroke-linecap:round;stroke-linejoin:miter;stroke-miterlimit:10;stroke-dasharray:none;stroke-opacity:1"
           id="path8728"
           inkscape:connector-curvature="0" />
      </g>
      <g
         id="g8730"
         transform="matrix(1.0181918,0,0,-1.0181918,222.94301,356.96194)">
        <path
           d="M 0,0 9.709,0"
           style="fill:none;stroke:#a7a9ac;stroke-width:1.44700003;stroke-linecap:round;stroke-linejoin:miter;stroke-miterlimit:10;stroke-dasharray:none;stroke-opacity:1"
           id="path8732"
           inkscape:connector-curvature="0" />
      </g>
      <g
         id="g8734"
         transform="matrix(1.0181918,0,0,-1.0181918,222.94301,360.69667)">
        <path
           d="M 0,0 9.709,0"
           style="fill:none;stroke:#a7a9ac;stroke-width:1.44700003;stroke-linecap:round;stroke-linejoin:miter;stroke-miterlimit:10;stroke-dasharray:none;stroke-opacity:1"
           id="path8736"
           inkscape:connector-curvature="0" />
      </g>
      <rect
         style="opacity:0.4;fill:#dbffdb;fill-opacity:1;stroke:#000000;stroke-width:2.66512561;stroke-linecap:round;stroke-linejoin:round;stroke-miterlimit:4;stroke-dasharray:10.66050282, 10.66050282;stroke-dashoffset:0;stroke-opacity:1"
         id="rect8738"
         width="475.82153"
         height="408.54666"
         x="233.47552"
         y="388.62558" />
      <text
         xml:space="preserve"
         style="font-style:normal;font-weight:normal;font-size:28.87467003px;line-height:125%;font-family:sans-serif;letter-spacing:0px;word-spacing:0px;fill:#000000;fill-opacity:1;stroke:none;stroke-width:1px;stroke-linecap:butt;stroke-linejoin:miter;stroke-opacity:1"
         x="409.76031"
         y="419.23285"
         id="text8740"
         sodipodi:linespacing="125%"><tspan
           sodipodi:role="line"
           id="tspan8742"
           x="409.76031"
           y="419.23285"
           style="font-style:normal;font-variant:normal;font-weight:normal;font-stretch:normal;font-size:20px;font-family:'Roboto Mono';-inkscape-font-specification:'Roboto Mono'">.container</tspan></text>
      <rect
         y="446.16913"
         x="250.63562"
         height="155.97664"
         width="441.50134"
         id="rect4303"
         style="opacity:0.4;fill:#b380ff;fill-opacity:1;stroke:#000000;stroke-width:2.11020899;stroke-linecap:round;stroke-linejoin:round;stroke-miterlimit:4;stroke-dasharray:8.44083595, 8.44083595;stroke-dashoffset:0;stroke-opacity:1" />
      <text
         sodipodi:linespacing="125%"
         id="text4307"
         y="470.80585"
         x="445.16071"
         style="font-style:normal;font-weight:normal;font-size:28.87467003px;line-height:125%;font-family:sans-serif;letter-spacing:0px;word-spacing:0px;fill:#000000;fill-opacity:1;stroke:none;stroke-width:1px;stroke-linecap:butt;stroke-linejoin:miter;stroke-opacity:1"
         xml:space="preserve"><tspan
           style="font-style:normal;font-variant:normal;font-weight:normal;font-stretch:normal;font-size:20px;font-family:'Roboto Mono';-inkscape-font-specification:'Roboto Mono'"
           y="470.80585"
           x="445.16071"
           id="tspan4309"
           sodipodi:role="line">.row</tspan></text>
      <rect
         y="486.66919"
         x="267.59143"
         height="95.28054"
         width="113.04651"
         id="rect4305"
         style="opacity:1;fill:#ffdbdb;fill-opacity:1;stroke:none;stroke-width:1.87576568;stroke-linecap:round;stroke-linejoin:round;stroke-miterlimit:4;stroke-dasharray:none;stroke-dashoffset:0;stroke-opacity:1" />
      <text
         xml:space="preserve"
         style="font-style:normal;font-weight:normal;font-size:28.87467003px;line-height:125%;font-family:sans-serif;letter-spacing:0px;word-spacing:0px;fill:#000000;fill-opacity:1;stroke:none;stroke-width:1px;stroke-linecap:butt;stroke-linejoin:miter;stroke-opacity:1"
         x="286.18988"
         y="541.71179"
         id="text4311"
         sodipodi:linespacing="125%"><tspan
           sodipodi:role="line"
           id="tspan4313"
           x="286.18988"
           y="541.71179"
           style="font-style:normal;font-variant:normal;font-weight:normal;font-stretch:normal;font-size:20px;font-family:'Roboto Mono';-inkscape-font-specification:'Roboto Mono'">.col-4</tspan></text>
      <rect
         style="opacity:1;fill:#ffdbdb;fill-opacity:1;stroke:none;stroke-width:1.87576568;stroke-linecap:round;stroke-linejoin:round;stroke-miterlimit:4;stroke-dasharray:none;stroke-dashoffset:0;stroke-opacity:1"
         id="rect4351"
         width="283.09235"
         height="95.28054"
         x="392.1463"
         y="486.66919" />
      <text
         sodipodi:linespacing="125%"
         id="text4353"
         y="541.71179"
         x="495.88486"
         style="font-style:normal;font-weight:normal;font-size:28.87467003px;line-height:125%;font-family:sans-serif;letter-spacing:0px;word-spacing:0px;fill:#000000;fill-opacity:1;stroke:none;stroke-width:1px;stroke-linecap:butt;stroke-linejoin:miter;stroke-opacity:1"
         xml:space="preserve"><tspan
           style="font-style:normal;font-variant:normal;font-weight:normal;font-stretch:normal;font-size:20px;font-family:'Roboto Mono';-inkscape-font-specification:'Roboto Mono'"
           y="541.71179"
           x="495.88486"
           id="tspan4355"
           sodipodi:role="line">.col-8</tspan></text>
      <rect
         style="opacity:0.4;fill:#b380ff;fill-opacity:1;stroke:#000000;stroke-width:2.11020899;stroke-linecap:round;stroke-linejoin:round;stroke-miterlimit:4;stroke-dasharray:8.44083595, 8.44083595;stroke-dashoffset:0;stroke-opacity:1"
         id="rect4374"
         width="441.50134"
         height="155.97664"
         x="250.63562"
         y="624.16913" />
      <text
         xml:space="preserve"
         style="font-style:normal;font-weight:normal;font-size:28.87467003px;line-height:125%;font-family:sans-serif;letter-spacing:0px;word-spacing:0px;fill:#000000;fill-opacity:1;stroke:none;stroke-width:1px;stroke-linecap:butt;stroke-linejoin:miter;stroke-opacity:1"
         x="445.16071"
         y="648.80585"
         id="text4376"
         sodipodi:linespacing="125%"><tspan
           sodipodi:role="line"
           id="tspan4378"
           x="445.16071"
           y="648.80585"
           style="font-style:normal;font-variant:normal;font-weight:normal;font-stretch:normal;font-size:20px;font-family:'Roboto Mono';-inkscape-font-specification:'Roboto Mono'">.row</tspan></text>
      <g
         transform="translate(-2.9125977e-6,0.30099083)"
         id="g4586">
        <rect
           y="664.66919"
           x="267.59143"
           height="95.28054"
           width="92.495697"
           id="rect4380"
           style="opacity:1;fill:#ffdbdb;fill-opacity:1;stroke:none;stroke-width:1.87576568;stroke-linecap:round;stroke-linejoin:round;stroke-miterlimit:4;stroke-dasharray:none;stroke-dashoffset:0;stroke-opacity:1" />
        <text
           xml:space="preserve"
           style="font-style:normal;font-weight:normal;font-size:28.87467003px;line-height:125%;font-family:sans-serif;letter-spacing:0px;word-spacing:0px;fill:#000000;fill-opacity:1;stroke:none;stroke-width:1px;stroke-linecap:butt;stroke-linejoin:miter;stroke-opacity:1"
           x="276.4516"
           y="719.71179"
           id="text4382"
           sodipodi:linespacing="125%"><tspan
             sodipodi:role="line"
             id="tspan4384"
             x="276.4516"
             y="719.71179"
             style="font-style:normal;font-variant:normal;font-weight:normal;font-stretch:normal;font-size:20px;font-family:'Roboto Mono';-inkscape-font-specification:'Roboto Mono'">.col-3</tspan></text>
      </g>
      <g
         transform="translate(104.86733,0.30099083)"
         id="g4591">
        <rect
           style="opacity:1;fill:#ffdbdb;fill-opacity:1;stroke:none;stroke-width:1.87576568;stroke-linecap:round;stroke-linejoin:round;stroke-miterlimit:4;stroke-dasharray:none;stroke-dashoffset:0;stroke-opacity:1"
           id="rect4593"
           width="92.495697"
           height="95.28054"
           x="267.59143"
           y="664.66919" />
        <text
           sodipodi:linespacing="125%"
           id="text4595"
           y="719.71179"
           x="276.4516"
           style="font-style:normal;font-weight:normal;font-size:28.87467003px;line-height:125%;font-family:sans-serif;letter-spacing:0px;word-spacing:0px;fill:#000000;fill-opacity:1;stroke:none;stroke-width:1px;stroke-linecap:butt;stroke-linejoin:miter;stroke-opacity:1"
           xml:space="preserve"><tspan
             style="font-style:normal;font-variant:normal;font-weight:normal;font-stretch:normal;font-size:20px;font-family:'Roboto Mono';-inkscape-font-specification:'Roboto Mono'"
             y="719.71179"
             x="276.4516"
             id="tspan4597"
             sodipodi:role="line">.col-3</tspan></text>
      </g>
      <g
         id="g4599"
         transform="translate(209.73465,0.30099083)">
        <rect
           y="664.66919"
           x="267.59143"
           height="95.28054"
           width="92.495697"
           id="rect4601"
           style="opacity:1;fill:#ffdbdb;fill-opacity:1;stroke:none;stroke-width:1.87576568;stroke-linecap:round;stroke-linejoin:round;stroke-miterlimit:4;stroke-dasharray:none;stroke-dashoffset:0;stroke-opacity:1" />
        <text
           xml:space="preserve"
           style="font-style:normal;font-weight:normal;font-size:28.87467003px;line-height:125%;font-family:sans-serif;letter-spacing:0px;word-spacing:0px;fill:#000000;fill-opacity:1;stroke:none;stroke-width:1px;stroke-linecap:butt;stroke-linejoin:miter;stroke-opacity:1"
           x="276.4516"
           y="719.71179"
           id="text4603"
           sodipodi:linespacing="125%"><tspan
             sodipodi:role="line"
             id="tspan4605"
             x="276.4516"
             y="719.71179"
             style="font-style:normal;font-variant:normal;font-weight:normal;font-stretch:normal;font-size:20px;font-family:'Roboto Mono';-inkscape-font-specification:'Roboto Mono'">.col-3</tspan></text>
      </g>
      <g
         transform="translate(314.60199,0.30099083)"
         id="g4607">
        <rect
           style="opacity:1;fill:#ffdbdb;fill-opacity:1;stroke:none;stroke-width:1.87576568;stroke-linecap:round;stroke-linejoin:round;stroke-miterlimit:4;stroke-dasharray:none;stroke-dashoffset:0;stroke-opacity:1"
           id="rect4609"
           width="92.495697"
           height="95.28054"
           x="267.59143"
           y="664.66919" />
        <text
           sodipodi:linespacing="125%"
           id="text4611"
           y="719.71179"
           x="276.4516"
           style="font-style:normal;font-weight:normal;font-size:28.87467003px;line-height:125%;font-family:sans-serif;letter-spacing:0px;word-spacing:0px;fill:#000000;fill-opacity:1;stroke:none;stroke-width:1px;stroke-linecap:butt;stroke-linejoin:miter;stroke-opacity:1"
           xml:space="preserve"><tspan
             style="font-style:normal;font-variant:normal;font-weight:normal;font-stretch:normal;font-size:20px;font-family:'Roboto Mono';-inkscape-font-specification:'Roboto Mono'"
             y="719.71179"
             x="276.4516"
             id="tspan4613"
             sodipodi:role="line">.col-3</tspan></text>
      </g>
    </g>
  </g>
</svg>
