<?xml version="1.0" encoding="UTF-8" standalone="no"?>
<!-- Created with Inkscape (http://www.inkscape.org/) -->

<svg
   xmlns:dc="http://purl.org/dc/elements/1.1/"
   xmlns:cc="http://creativecommons.org/ns#"
   xmlns:rdf="http://www.w3.org/1999/02/22-rdf-syntax-ns#"
   xmlns:svg="http://www.w3.org/2000/svg"
   xmlns="http://www.w3.org/2000/svg"
   xmlns:sodipodi="http://sodipodi.sourceforge.net/DTD/sodipodi-0.dtd"
   xmlns:inkscape="http://www.inkscape.org/namespaces/inkscape"
   width="154.61438mm"
   height="103.8411mm"
   viewBox="0 0 547.84623 367.94092"
   id="svg7682"
   version="1.1"
   inkscape:version="0.92.3 (2405546, 2018-03-11)"
   sodipodi:docname="flexbox_fundamentals.svg"
   inkscape:export-filename="/home/raul/web/docs/flexbox/imgFlexbox/flexbox_fundamentals.png"
   inkscape:export-xdpi="90"
   inkscape:export-ydpi="90">
  <defs
     id="defs7684">
    <clipPath
       clipPathUnits="userSpaceOnUse"
       id="clipPath18">
      <path
         d="M 0,980 1400,980 1400,0 0,0 0,980 Z"
         id="path20"
         inkscape:connector-curvature="0" />
    </clipPath>
    <clipPath
       clipPathUnits="userSpaceOnUse"
       id="clipPath52">
      <path
         d="M 0,980 1400,980 1400,0 0,0 0,980 Z"
         id="path54"
         inkscape:connector-curvature="0" />
    </clipPath>
    <clipPath
       clipPathUnits="userSpaceOnUse"
       id="clipPath18-3">
      <path
         d="M 0,980 1400,980 1400,0 0,0 0,980 Z"
         id="path20-6"
         inkscape:connector-curvature="0" />
    </clipPath>
  </defs>
  <sodipodi:namedview
     id="base"
     pagecolor="#ffffff"
     bordercolor="#666666"
     borderopacity="1.0"
     inkscape:pageopacity="0.0"
     inkscape:pageshadow="2"
     inkscape:zoom="0.78802287"
     inkscape:cx="65.987308"
     inkscape:cy="197.85788"
     inkscape:document-units="px"
     inkscape:current-layer="layer1"
     showgrid="false"
     inkscape:window-width="1317"
     inkscape:window-height="719"
     inkscape:window-x="49"
     inkscape:window-y="25"
     inkscape:window-maximized="1"
     fit-margin-top="5"
     fit-margin-right="5"
     fit-margin-bottom="5"
     fit-margin-left="5" />
  <metadata
     id="metadata7687">
    <rdf:RDF>
      <cc:Work
         rdf:about="">
        <dc:format>image/svg+xml</dc:format>
        <dc:type
           rdf:resource="http://purl.org/dc/dcmitype/StillImage" />
        <dc:title />
      </cc:Work>
    </rdf:RDF>
  </metadata>
  <g
     inkscape:label="Capa 1"
     inkscape:groupmode="layer"
     id="layer1"
     transform="translate(-197.46317,-310.68838)">
    <g
       style="stroke:#000000;stroke-opacity:0.23152711"
       transform="matrix(1.0181918,0,0,-1.0181918,-548.82255,805.98656)"
       id="g8650"
       clip-path="url(#clipPath18-3)">
      <g
         style="stroke:#000000;stroke-opacity:0.23152711"
         id="g8652"
         transform="translate(1247.499,468.5488)">
        <path
           d="m 0,0 h -491.036 c -3.086,0 -5.61,-2.524 -5.61,-5.61 v -314.348 c 0,-3.085 2.524,-5.609 5.61,-5.609 H 0 c 3.087,0 5.611,2.524 5.611,5.609 V -5.61 C 5.611,-2.524 3.087,0 0,0"
           style="fill:#e7e8e9;fill-opacity:1;fill-rule:nonzero;stroke:#000000;stroke-opacity:0.23152711"
           id="path8654"
           inkscape:connector-curvature="0" />
      </g>
      <g
         style="stroke:#000000;stroke-opacity:0.23152711"
         id="g8656"
         transform="translate(750.8525,427.4121)">
        <path
           d="m 0,0 v 33.086 c 0,1.284 1.051,2.336 2.337,2.336 h 66.504 c 1.286,0 2.336,-1.052 2.336,-2.336 v -8.61 h 431.08 V 0 Z"
           style="fill:#dcddde;fill-opacity:1;fill-rule:nonzero;stroke:#000000;stroke-opacity:0.23152711"
           id="path8658"
           inkscape:connector-curvature="0" />
      </g>
      <path
         d="M 1253.11,156.322 H 750.852 v 273.804 h 502.258 z"
         style="fill:#ffffff;fill-opacity:1;fill-rule:nonzero;stroke:#000000;stroke-opacity:0.23152711"
         id="path8660"
         inkscape:connector-curvature="0" />
      <g
         style="stroke:#000000;stroke-opacity:0.23152711"
         id="g8662"
         transform="translate(1249.8154,150.3389)">
        <path
           d="m 0,0 -4.01,-4.008 0.463,-0.462 4.008,4.009 z m -0.406,1.995 -5.596,-5.596 0.459,-0.461 5.597,5.595 z m 0.812,-3.987 -2.421,-2.423 0.46,-0.461 2.421,2.421 z"
           style="fill:#d1d3d4;fill-opacity:1;fill-rule:nonzero;stroke:#000000;stroke-opacity:0.23152711"
           id="path8664"
           inkscape:connector-curvature="0" />
      </g>
      <g
         style="stroke:#000000;stroke-opacity:0.23152711"
         id="g8666"
         transform="translate(1238.0811,448.2949)">
        <path
           d="m 0,0 h -431.342 c -1.593,0 -2.894,-1.303 -2.894,-2.895 v -8.795 c 0,-1.592 1.301,-2.895 2.894,-2.895 H 0 c 1.593,0 2.896,1.303 2.896,2.895 v 8.795 C 2.896,-1.303 1.593,0 0,0"
           style="fill:#ffffff;fill-opacity:1;fill-rule:nonzero;stroke:#000000;stroke-opacity:0.23152711"
           id="path8668"
           inkscape:connector-curvature="0" />
      </g>
      <g
         style="stroke:#000000;stroke-opacity:0.23152711"
         id="g8670"
         transform="translate(1238.0811,448.2949)">
        <path
           d="m 0,0 h -431.342 c -1.593,0 -2.894,-1.303 -2.894,-2.895 v -8.795 c 0,-1.592 1.301,-2.895 2.894,-2.895 H 0 c 1.593,0 2.896,1.303 2.896,2.895 v 8.795 C 2.896,-1.303 1.593,0 0,0 Z"
           style="fill:none;stroke:#000000;stroke-width:0.83399999;stroke-linecap:butt;stroke-linejoin:miter;stroke-miterlimit:10;stroke-dasharray:none;stroke-opacity:0.23152711"
           id="path8672"
           inkscape:connector-curvature="0" />
      </g>
    </g>
    <g
       transform="matrix(1.0181918,0,0,-1.0181918,253.5742,361.10139)"
       id="g8674">
      <path
         inkscape:connector-curvature="0"
         id="path8676"
         style="fill:#a7a9ac;fill-opacity:1;fill-rule:nonzero;stroke:none"
         d="M 0,0 V 8.132 L 8.133,4.064 Z" />
    </g>
    <g
       transform="matrix(1.0181918,0,0,-1.0181918,246.42303,361.10139)"
       id="g8678">
      <path
         inkscape:connector-curvature="0"
         id="path8680"
         style="fill:#a7a9ac;fill-opacity:1;fill-rule:nonzero;stroke:none"
         d="M 0,0 V 8.132 L -8.133,4.064 Z" />
    </g>
    <g
       transform="matrix(1.0181918,0,0,-1.0181918,711.52195,357.69178)"
       id="g8682">
      <path
         inkscape:connector-curvature="0"
         id="path8684"
         style="fill:none;stroke:#bcbec0;stroke-width:0.83399999;stroke-linecap:round;stroke-linejoin:round;stroke-miterlimit:10;stroke-dasharray:none;stroke-opacity:1"
         d="m 0,0 c 0,-2.126 -1.724,-3.85 -3.85,-3.85 -2.124,0 -3.847,1.724 -3.847,3.85 0,2.124 1.723,3.847 3.72,3.847 h 2.858" />
    </g>
    <g
       transform="matrix(1.0181918,0,0,-1.0181918,708.28145,351.67416)"
       id="g8686">
      <path
         inkscape:connector-curvature="0"
         id="path8688"
         style="fill:none;stroke:#bcbec0;stroke-width:0.83399999;stroke-linecap:round;stroke-linejoin:round;stroke-miterlimit:10;stroke-dasharray:none;stroke-opacity:1"
         d="M 0,0 2.063,-2.063 0,-4.126" />
    </g>
    <g
       transform="matrix(1.0181918,0,0,-1.0181918,694.38171,333.25914)"
       id="g8690">
      <path
         inkscape:connector-curvature="0"
         id="path8692"
         style="fill:#d1d3d4;fill-opacity:1;fill-rule:nonzero;stroke:none"
         d="M 0,0 H -6.812 C -7.83,0 -8.661,-0.832 -8.661,-1.85 v -6.811 c 0,-1.018 0.831,-1.85 1.849,-1.85 H 0 c 1.018,0 1.849,0.832 1.849,1.85 V -1.85 C 1.849,-0.832 1.018,0 0,0" />
    </g>
    <g
       transform="matrix(1.0181918,0,0,-1.0181918,687.45821,338.67236)"
       id="g8694">
      <path
         inkscape:connector-curvature="0"
         id="path8696"
         style="fill:#d81920;fill-opacity:1;fill-rule:nonzero;stroke:#ffffff;stroke-width:1.44700003;stroke-linecap:round;stroke-linejoin:round;stroke-miterlimit:10;stroke-dasharray:none;stroke-opacity:1"
         d="M 0,0 H 6.787" />
    </g>
    <g
       transform="matrix(1.0181918,0,0,-1.0181918,707.27517,333.25914)"
       id="g8698">
      <path
         inkscape:connector-curvature="0"
         id="path8700"
         style="fill:#d1d3d4;fill-opacity:1;fill-rule:nonzero;stroke:none"
         d="m 0,0 h -6.813 c -1.016,0 -1.848,-0.832 -1.848,-1.85 v -6.811 c 0,-1.018 0.832,-1.85 1.848,-1.85 H 0 c 1.018,0 1.85,0.832 1.85,1.85 V -1.85 C 1.85,-0.832 1.018,0 0,0" />
    </g>
    <path
       inkscape:connector-curvature="0"
       id="path8702"
       style="fill:none;stroke:#ffffff;stroke-width:1.47332358;stroke-linecap:round;stroke-linejoin:round;stroke-miterlimit:10;stroke-dasharray:none;stroke-opacity:1"
       d="m 700.35218,336.02588 h 6.90945 v 5.2946 h -6.90945 z" />
    <g
       transform="matrix(1.0181918,0,0,-1.0181918,700.35259,337.47914)"
       id="g8704">
      <path
         inkscape:connector-curvature="0"
         id="path8706"
         style="fill:none;stroke:#ffffff;stroke-width:1.44700003;stroke-linecap:round;stroke-linejoin:round;stroke-miterlimit:10;stroke-dasharray:none;stroke-opacity:1"
         d="M 0,0 H 6.786" />
    </g>
    <g
       transform="matrix(1.0181918,0,0,-1.0181918,720.16864,333.25914)"
       id="g8708">
      <path
         inkscape:connector-curvature="0"
         id="path8710"
         style="fill:#d1d3d4;fill-opacity:1;fill-rule:nonzero;stroke:none"
         d="m 0,0 h -6.812 c -1.017,0 -1.849,-0.832 -1.849,-1.85 v -6.811 c 0,-1.018 0.832,-1.85 1.849,-1.85 H 0 c 1.018,0 1.85,0.832 1.85,1.85 V -1.85 C 1.85,-0.832 1.018,0 0,0" />
    </g>
    <g
       transform="matrix(1.0181918,0,0,-1.0181918,713.58216,335.49143)"
       id="g8712">
      <path
         inkscape:connector-curvature="0"
         id="path8714"
         style="fill:none;stroke:#ffffff;stroke-width:1.44700003;stroke-linecap:round;stroke-linejoin:round;stroke-miterlimit:10;stroke-dasharray:none;stroke-opacity:1"
         d="M 0,0 6.126,-6.126" />
    </g>
    <g
       transform="matrix(1.0181918,0,0,-1.0181918,713.58216,341.72887)"
       id="g8716">
      <path
         inkscape:connector-curvature="0"
         id="path8718"
         style="fill:none;stroke:#ffffff;stroke-width:1.44700003;stroke-linecap:round;stroke-linejoin:round;stroke-miterlimit:10;stroke-dasharray:none;stroke-opacity:1"
         d="M 0,0 6.126,6.126" />
    </g>
    <path
       d="m 306.52475,345.8782 v -8.76663 c 0,-1.30837 -1.07012,-2.37849 -2.3785,-2.37849 h -8.76459 c -1.30838,0 -2.3785,1.07012 -2.3785,2.37849 v 8.76663 z"
       style="fill:#bcbec0;fill-opacity:1;fill-rule:nonzero;stroke:none;stroke-width:0.81455344"
       id="path8720"
       inkscape:connector-curvature="0" />
    <path
       d="m 299.76335,336.52163 v 7.56822"
       style="fill:none;stroke:#e7e8e9;stroke-width:1.47332358;stroke-linecap:round;stroke-linejoin:round;stroke-miterlimit:10;stroke-dasharray:none;stroke-opacity:1"
       id="path8722"
       inkscape:connector-curvature="0" />
    <path
       d="m 295.97995,340.30503 h 7.56822"
       style="fill:none;stroke:#e7e8e9;stroke-width:1.47332358;stroke-linecap:round;stroke-linejoin:round;stroke-miterlimit:10;stroke-dasharray:none;stroke-opacity:1"
       id="path8724"
       inkscape:connector-curvature="0" />
    <g
       transform="matrix(1.0181918,0,0,-1.0181918,222.94301,353.22731)"
       id="g8726">
      <path
         inkscape:connector-curvature="0"
         id="path8728"
         style="fill:none;stroke:#a7a9ac;stroke-width:1.44700003;stroke-linecap:round;stroke-linejoin:miter;stroke-miterlimit:10;stroke-dasharray:none;stroke-opacity:1"
         d="M 0,0 H 9.709" />
    </g>
    <g
       transform="matrix(1.0181918,0,0,-1.0181918,222.94301,356.96194)"
       id="g8730">
      <path
         inkscape:connector-curvature="0"
         id="path8732"
         style="fill:none;stroke:#a7a9ac;stroke-width:1.44700003;stroke-linecap:round;stroke-linejoin:miter;stroke-miterlimit:10;stroke-dasharray:none;stroke-opacity:1"
         d="M 0,0 H 9.709" />
    </g>
    <g
       transform="matrix(1.0181918,0,0,-1.0181918,222.94301,360.69667)"
       id="g8734">
      <path
         inkscape:connector-curvature="0"
         id="path8736"
         style="fill:none;stroke:#a7a9ac;stroke-width:1.44700003;stroke-linecap:round;stroke-linejoin:miter;stroke-miterlimit:10;stroke-dasharray:none;stroke-opacity:1"
         d="M 0,0 H 9.709" />
    </g>
    <text
       xml:space="preserve"
       style="font-style:normal;font-weight:normal;font-size:37.5px;line-height:1.25;font-family:sans-serif;letter-spacing:0px;word-spacing:0px;fill:#000000;fill-opacity:1;stroke:none;stroke-width:0.9375"
       x="324.75961"
       y="526.34949"
       id="text921"><tspan
         sodipodi:role="line"
         id="tspan919"
         x="324.75961"
         y="559.5282"
         style="stroke-width:0.9375" /></text>
    <g
       id="g1053"
       transform="translate(0,18.75)">
      <g
         id="g1031">
        <rect
           y="388.22925"
           x="233.07918"
           height="201.32726"
           width="476.61423"
           id="rect8738"
           style="opacity:0.4;fill:#ffce81;fill-opacity:1;stroke:#000000;stroke-width:1.8721875;stroke-linecap:round;stroke-linejoin:round;stroke-miterlimit:4;stroke-dasharray:7.48875, 7.48875;stroke-dashoffset:0;stroke-opacity:1" />
        <text
           id="text8740"
           y="430.15942"
           x="386.94781"
           style="font-style:normal;font-weight:normal;line-height:0%;font-family:sans-serif;letter-spacing:0px;word-spacing:0px;fill:#000000;fill-opacity:1;stroke:none;stroke-width:1px;stroke-linecap:butt;stroke-linejoin:miter;stroke-opacity:1"
           xml:space="preserve"><tspan
             style="font-style:normal;font-variant:normal;font-weight:normal;font-stretch:normal;font-size:20px;line-height:1.25;font-family:'Roboto Mono';-inkscape-font-specification:'Roboto Mono'"
             y="430.15942"
             x="386.94781"
             id="tspan8742"
             sodipodi:role="line">FLEX CONTAINER</tspan></text>
      </g>
      <g
         transform="translate(-6.2230911)"
         id="g1026">
        <g
           id="g989"
           transform="translate(3.75)">
          <rect
             y="465.09622"
             x="567.08704"
             height="95.28054"
             width="109.79469"
             id="rect945"
             style="opacity:0.4;fill:#ff6565;fill-opacity:1;stroke:#000000;stroke-width:1.875;stroke-linecap:round;stroke-linejoin:round;stroke-miterlimit:4;stroke-dasharray:11.25000001, 3.75;stroke-dashoffset:0;stroke-opacity:1" />
          <text
             xml:space="preserve"
             style="font-style:normal;font-weight:normal;line-height:0%;font-family:sans-serif;letter-spacing:0px;word-spacing:0px;fill:#000000;fill-opacity:1;stroke:none;stroke-width:0.9375;stroke-linecap:butt;stroke-linejoin:miter;stroke-miterlimit:4;stroke-dasharray:none;stroke-opacity:1"
             x="621.13477"
             y="507.34589"
             id="text975"><tspan
               sodipodi:role="line"
               id="tspan971"
               x="627.13086"
               y="507.34589"
               style="font-style:normal;font-variant:normal;font-weight:normal;font-stretch:normal;font-size:20px;line-height:1.25;font-family:'Roboto Mono';-inkscape-font-specification:'Roboto Mono';text-align:center;text-anchor:middle;stroke-width:0.9375;stroke-miterlimit:4;stroke-dasharray:none">FLEX </tspan><tspan
               sodipodi:role="line"
               x="621.13477"
               y="532.34589"
               style="font-style:normal;font-variant:normal;font-weight:normal;font-stretch:normal;font-size:20px;line-height:1.25;font-family:'Roboto Mono';-inkscape-font-specification:'Roboto Mono';text-align:center;text-anchor:middle;stroke-width:0.9375;stroke-miterlimit:4;stroke-dasharray:none"
               id="tspan973">ITEM</tspan></text>
        </g>
        <g
           transform="translate(-292.5)"
           id="g999">
          <rect
             style="opacity:0.4;fill:#ff6565;fill-opacity:1;stroke:#000000;stroke-width:1.875;stroke-linecap:round;stroke-linejoin:round;stroke-miterlimit:4;stroke-dasharray:11.25000001, 3.75;stroke-dashoffset:0;stroke-opacity:1"
             id="rect991"
             width="109.79469"
             height="95.28054"
             x="567.08704"
             y="465.09622" />
          <text
             id="text997"
             y="507.34589"
             x="621.13477"
             style="font-style:normal;font-weight:normal;line-height:0%;font-family:sans-serif;letter-spacing:0px;word-spacing:0px;fill:#000000;fill-opacity:1;stroke:none;stroke-width:0.9375;stroke-linecap:butt;stroke-linejoin:miter;stroke-miterlimit:4;stroke-dasharray:none;stroke-opacity:1"
             xml:space="preserve"><tspan
               style="font-style:normal;font-variant:normal;font-weight:normal;font-stretch:normal;font-size:20px;line-height:1.25;font-family:'Roboto Mono';-inkscape-font-specification:'Roboto Mono';text-align:center;text-anchor:middle;stroke-width:0.9375;stroke-miterlimit:4;stroke-dasharray:none"
               y="507.34589"
               x="627.13086"
               id="tspan993"
               sodipodi:role="line">FLEX </tspan><tspan
               id="tspan995"
               style="font-style:normal;font-variant:normal;font-weight:normal;font-stretch:normal;font-size:20px;line-height:1.25;font-family:'Roboto Mono';-inkscape-font-specification:'Roboto Mono';text-align:center;text-anchor:middle;stroke-width:0.9375;stroke-miterlimit:4;stroke-dasharray:none"
               y="532.34589"
               x="621.13477"
               sodipodi:role="line">ITEM</tspan></text>
        </g>
        <g
           id="g1009"
           transform="translate(-144.375)">
          <rect
             y="465.09622"
             x="567.08704"
             height="95.28054"
             width="109.79469"
             id="rect1001"
             style="opacity:0.4;fill:#ff6565;fill-opacity:1;stroke:#000000;stroke-width:1.875;stroke-linecap:round;stroke-linejoin:round;stroke-miterlimit:4;stroke-dasharray:11.25000001, 3.75;stroke-dashoffset:0;stroke-opacity:1" />
          <text
             xml:space="preserve"
             style="font-style:normal;font-weight:normal;line-height:0%;font-family:sans-serif;letter-spacing:0px;word-spacing:0px;fill:#000000;fill-opacity:1;stroke:none;stroke-width:0.9375;stroke-linecap:butt;stroke-linejoin:miter;stroke-miterlimit:4;stroke-dasharray:none;stroke-opacity:1"
             x="621.13477"
             y="507.34589"
             id="text1007"><tspan
               sodipodi:role="line"
               id="tspan1003"
               x="627.13086"
               y="507.34589"
               style="font-style:normal;font-variant:normal;font-weight:normal;font-stretch:normal;font-size:20px;line-height:1.25;font-family:'Roboto Mono';-inkscape-font-specification:'Roboto Mono';text-align:center;text-anchor:middle;stroke-width:0.9375;stroke-miterlimit:4;stroke-dasharray:none">FLEX </tspan><tspan
               sodipodi:role="line"
               x="621.13477"
               y="532.34589"
               style="font-style:normal;font-variant:normal;font-weight:normal;font-stretch:normal;font-size:20px;line-height:1.25;font-family:'Roboto Mono';-inkscape-font-specification:'Roboto Mono';text-align:center;text-anchor:middle;stroke-width:0.9375;stroke-miterlimit:4;stroke-dasharray:none"
               id="tspan1005">ITEM</tspan></text>
        </g>
      </g>
    </g>
  </g>
</svg>
